{
	"asset":{
		"generator":"Khronos glTF Blender I/O v5.2.39",
		"version":"2.0"
	},
	"scene":0,
	"scenes":[
		{
			"name":"Scene",
			"nodes":[
				0,
				1,
				2,
				3,
				4,
				5,
				6,
				7,
				8,
				9,
				10,
				11,
				12,
				13,
				14,
				15,
				16,
				17,
				18,
				19,
				20,
				21,
				22,
				23,
				24,
				25,
				26,
				27,
				28,
				29,
				30,
				31,
				32,
				33,
				34,
				35,
				36,
				37,
				38,
				39,
				40,
				41,
				42,
				43,
				44,
				45,
				46,
				47,
				48,
				49,
				50,
				51,
				52,
				53,
				54,
				55,
				56,
				57
			]
		}
	],
	"nodes":[
		{
			"mesh":0,
			"name":"BLK_1"
		},
		{
			"mesh":1,
			"name":"BLK_2"
		},
		{
			"mesh":2,
			"name":"BLK_3"
		},
		{
			"mesh":3,
			"name":"BLK_4"
		},
		{
			"mesh":4,
			"name":"COL_Booth_haulA"
		},
		{
			"mesh":5,
			"name":"COL_Booth_haulB"
		},
		{
			"mesh":6,
			"name":"COL_Booth_seamE"
		},
		{
			"mesh":7,
			"name":"COL_Booth_seamW"
		},
		{
			"mesh":8,
			"name":"COL_Booth_south"
		},
		{
			"name":"LOOK_Player",
			"translation":[
				6,
				1.600000023841858,
				0
			]
		},
		{
			"name":"LOOK_Stalker",
			"translation":[
				46,
				2,
				-15.050000190734863
			]
		},
		{
			"mesh":9,
			"name":"PRP_Fence"
		},
		{
			"mesh":10,
			"name":"PRP_Plate",
			"translation":[
				21.149999618530273,
				2,
				-10.949999809265137
			]
		},
		{
			"mesh":11,
			"name":"PRP_Rubble_End"
		},
		{
			"mesh":12,
			"name":"PRP_Rubble_Goaf"
		},
		{
			"mesh":13,
			"name":"PRP_Timber_haulA"
		},
		{
			"mesh":14,
			"name":"PRP_Timber_haulB"
		},
		{
			"mesh":15,
			"name":"PRP_Timber_seamE"
		},
		{
			"mesh":16,
			"name":"PRP_Timber_seamW"
		},
		{
			"mesh":17,
			"name":"PRP_Timber_south"
		},
		{
			"mesh":18,
			"name":"PRP_WindDoor"
		},
		{
			"mesh":4,
			"name":"SHL_Booth_haulA"
		},
		{
			"mesh":5,
			"name":"SHL_Booth_haulB"
		},
		{
			"mesh":6,
			"name":"SHL_Booth_seamE"
		},
		{
			"mesh":7,
			"name":"SHL_Booth_seamW"
		},
		{
			"mesh":8,
			"name":"SHL_Booth_south"
		},
		{
			"name":"SLOT_DeadLight_1",
			"translation":[
				26,
				2.3499999046325684,
				0
			]
		},
		{
			"name":"SLOT_DeadLight_2",
			"translation":[
				32,
				2.3499999046325684,
				0
			]
		},
		{
			"name":"SLOT_DeadLight_3",
			"translation":[
				38,
				2.3499999046325684,
				0
			]
		},
		{
			"name":"SLOT_DeadLight_4",
			"translation":[
				44,
				2.3499999046325684,
				0
			]
		},
		{
			"name":"SLOT_DeadLight_5",
			"translation":[
				18.5,
				2.549999952316284,
				-3.200000047683716
			]
		},
		{
			"name":"SLOT_DeadLight_6",
			"translation":[
				32.5,
				2.1500000953674316,
				3
			]
		},
		{
			"name":"SLOT_GapBig_1",
			"translation":[
				4.199999809265137,
				1,
				-12.199999809265137
			]
		},
		{
			"name":"SLOT_GapBig_2",
			"translation":[
				40,
				1,
				-15.600000381469727
			]
		},
		{
			"name":"SLOT_GapBig_3",
			"translation":[
				47,
				5.900000095367432,
				9
			]
		},
		{
			"name":"SLOT_GapSmall_1",
			"translation":[
				13,
				1,
				-8.699999809265137
			]
		},
		{
			"name":"SLOT_GapSmall_2",
			"translation":[
				63.29999923706055,
				0,
				7.300000190734863
			]
		},
		{
			"name":"SLOT_Light_1",
			"translation":[
				-1.5,
				2.6500000953674316,
				0
			]
		},
		{
			"name":"SLOT_Light_2",
			"translation":[
				4,
				3.1500000953674316,
				0
			]
		},
		{
			"name":"SLOT_Light_3",
			"translation":[
				12,
				2.3499999046325684,
				0
			]
		},
		{
			"name":"SLOT_Light_4",
			"translation":[
				18,
				2.3499999046325684,
				0
			]
		},
		{
			"name":"SLOT_Light_5",
			"translation":[
				17,
				2.3499999046325684,
				3.200000047683716
			]
		},
		{
			"name":"SLOT_Pocket_1",
			"translation":[
				18.356685638427734,
				2.4000000953674316,
				-15.333730697631836
			]
		},
		{
			"name":"SLOT_Pocket_2",
			"translation":[
				9.818580627441406,
				2.4000000953674316,
				-15.723869323730469
			]
		},
		{
			"name":"SLOT_Pocket_3",
			"translation":[
				2.045987129211426,
				2.4000000953674316,
				-11.5954008102417
			]
		},
		{
			"name":"SLOT_Pocket_4",
			"translation":[
				27,
				2.4000000953674316,
				-10.870140075683594
			]
		},
		{
			"name":"SLOT_Pocket_5",
			"translation":[
				35.29999923706055,
				2.4000000953674316,
				-9.368171691894531
			]
		},
		{
			"name":"SLOT_Pocket_6",
			"translation":[
				39.79999923706055,
				2.4000000953674316,
				-11.770058631896973
			]
		},
		{
			"name":"SLOT_Pocket_7",
			"translation":[
				44.29999923706055,
				2.4000000953674316,
				-9.329752922058105
			]
		},
		{
			"name":"SLOT_Pocket_8",
			"translation":[
				54,
				2.4000000953674316,
				-11.86595344543457
			]
		},
		{
			"name":"SLOT_Pocket_9",
			"translation":[
				61.5,
				2.4000000953674316,
				-12.426745414733887
			]
		},
		{
			"name":"SLOT_Pocket_10",
			"translation":[
				67.00273895263672,
				2.4000000953674316,
				-10.699999809265137
			]
		},
		{
			"name":"SLOT_Pocket_11",
			"translation":[
				41.70487976074219,
				4.349999904632568,
				5.734124660491943
			]
		},
		{
			"name":"SLOT_Pocket_12",
			"translation":[
				48.95371627807617,
				7.199999809265137,
				8.690743446350098
			]
		},
		{
			"name":"SLOT_Prop_Cart",
			"translation":[
				4,
				0,
				1.2999999523162842
			]
		},
		{
			"name":"SLOT_Prop_Lunchbox",
			"translation":[
				62.29999923706055,
				1,
				-10.600000381469727
			]
		},
		{
			"name":"SPAWN_Player",
			"translation":[
				-1.5,
				0.05000000074505806,
				0
			]
		},
		{
			"name":"SPAWN_Stalker",
			"translation":[
				37.54999923706055,
				1.0499999523162842,
				-15.050000190734863
			]
		}
	],
	"materials":[
		{
			"doubleSided":true,
			"name":"MAT_Rock_EXPORT",
			"normalTexture":{
				"index":0
			},
			"pbrMetallicRoughness":{
				"baseColorTexture":{
					"index":1
				},
				"metallicFactor":0,
				"metallicRoughnessTexture":{
					"index":2
				}
			}
		},
		{
			"doubleSided":true,
			"name":"MAT_RockWall_EXPORT",
			"normalTexture":{
				"index":3
			},
			"pbrMetallicRoughness":{
				"baseColorTexture":{
					"index":4
				},
				"metallicFactor":0,
				"metallicRoughnessTexture":{
					"index":5
				}
			}
		},
		{
			"doubleSided":true,
			"name":"MAT_Floor_EXPORT",
			"normalTexture":{
				"index":6
			},
			"pbrMetallicRoughness":{
				"baseColorTexture":{
					"index":7
				},
				"metallicFactor":0,
				"metallicRoughnessTexture":{
					"index":8
				}
			}
		},
		{
			"doubleSided":true,
			"name":"MAT_Timber_EXPORT",
			"normalTexture":{
				"index":9
			},
			"pbrMetallicRoughness":{
				"baseColorTexture":{
					"index":10
				},
				"metallicFactor":0,
				"metallicRoughnessTexture":{
					"index":11
				}
			}
		},
		{
			"doubleSided":true,
			"name":"MAT_RustyMetal_EXPORT",
			"normalTexture":{
				"index":12,
				"texCoord":-1
			},
			"pbrMetallicRoughness":{
				"baseColorTexture":{
					"index":13,
					"texCoord":-1
				},
				"metallicFactor":0,
				"metallicRoughnessTexture":{
					"index":14,
					"texCoord":-1
				}
			}
		}
	],
	"meshes":[
		{
			"name":"BLK_1",
			"primitives":[
				{
					"attributes":{
						"POSITION":0,
						"NORMAL":1,
						"TEXCOORD_0":2
					},
					"indices":3,
					"material":0
				}
			]
		},
		{
			"name":"BLK_2",
			"primitives":[
				{
					"attributes":{
						"POSITION":4,
						"NORMAL":5,
						"TEXCOORD_0":6
					},
					"indices":7,
					"material":0
				}
			]
		},
		{
			"name":"BLK_3",
			"primitives":[
				{
					"attributes":{
						"POSITION":8,
						"NORMAL":9,
						"TEXCOORD_0":10
					},
					"indices":11,
					"material":0
				}
			]
		},
		{
			"name":"BLK_4",
			"primitives":[
				{
					"attributes":{
						"POSITION":12,
						"NORMAL":13,
						"TEXCOORD_0":14
					},
					"indices":15,
					"material":0
				}
			]
		},
		{
			"name":"Booth_haulA",
			"primitives":[
				{
					"attributes":{
						"POSITION":16,
						"NORMAL":17,
						"TEXCOORD_0":18
					},
					"indices":19,
					"material":1
				},
				{
					"attributes":{
						"POSITION":20,
						"NORMAL":21,
						"TEXCOORD_0":22
					},
					"indices":23,
					"material":2
				}
			]
		},
		{
			"name":"Booth_haulB",
			"primitives":[
				{
					"attributes":{
						"POSITION":24,
						"NORMAL":25,
						"TEXCOORD_0":26
					},
					"indices":27,
					"material":1
				},
				{
					"attributes":{
						"POSITION":28,
						"NORMAL":29,
						"TEXCOORD_0":30
					},
					"indices":31,
					"material":2
				}
			]
		},
		{
			"name":"Booth_seamE",
			"primitives":[
				{
					"attributes":{
						"POSITION":32,
						"NORMAL":33,
						"TEXCOORD_0":34
					},
					"indices":35,
					"material":1
				},
				{
					"attributes":{
						"POSITION":36,
						"NORMAL":37,
						"TEXCOORD_0":38
					},
					"indices":39,
					"material":2
				}
			]
		},
		{
			"name":"Booth_seamW",
			"primitives":[
				{
					"attributes":{
						"POSITION":40,
						"NORMAL":41,
						"TEXCOORD_0":42
					},
					"indices":43,
					"material":1
				},
				{
					"attributes":{
						"POSITION":44,
						"NORMAL":45,
						"TEXCOORD_0":46
					},
					"indices":47,
					"material":2
				}
			]
		},
		{
			"name":"Booth_south",
			"primitives":[
				{
					"attributes":{
						"POSITION":48,
						"NORMAL":49,
						"TEXCOORD_0":50
					},
					"indices":51,
					"material":1
				},
				{
					"attributes":{
						"POSITION":52,
						"NORMAL":53,
						"TEXCOORD_0":54
					},
					"indices":55,
					"material":2
				}
			]
		},
		{
			"name":"PRP_Fence",
			"primitives":[
				{
					"attributes":{
						"POSITION":56,
						"NORMAL":57,
						"TEXCOORD_0":58
					},
					"indices":59,
					"material":3
				}
			]
		},
		{
			"name":"PRP_Plate",
			"primitives":[
				{
					"attributes":{
						"POSITION":60,
						"NORMAL":61
					},
					"indices":62,
					"material":4
				}
			]
		},
		{
			"name":"PRP_Rubble_End",
			"primitives":[
				{
					"attributes":{
						"POSITION":63,
						"NORMAL":64,
						"TEXCOORD_0":65
					},
					"indices":66,
					"material":0
				}
			]
		},
		{
			"name":"PRP_Rubble_Goaf",
			"primitives":[
				{
					"attributes":{
						"POSITION":67,
						"NORMAL":68,
						"TEXCOORD_0":69
					},
					"indices":70,
					"material":0
				}
			]
		},
		{
			"name":"PRP_Timber_haulA",
			"primitives":[
				{
					"attributes":{
						"POSITION":71,
						"NORMAL":72,
						"TEXCOORD_0":73
					},
					"indices":74,
					"material":3
				}
			]
		},
		{
			"name":"PRP_Timber_haulB",
			"primitives":[
				{
					"attributes":{
						"POSITION":75,
						"NORMAL":76,
						"TEXCOORD_0":77
					},
					"indices":78,
					"material":3
				}
			]
		},
		{
			"name":"PRP_Timber_seamE",
			"primitives":[
				{
					"attributes":{
						"POSITION":79,
						"NORMAL":80,
						"TEXCOORD_0":81
					},
					"indices":82,
					"material":3
				}
			]
		},
		{
			"name":"PRP_Timber_seamW",
			"primitives":[
				{
					"attributes":{
						"POSITION":83,
						"NORMAL":84,
						"TEXCOORD_0":85
					},
					"indices":86,
					"material":3
				}
			]
		},
		{
			"name":"PRP_Timber_south",
			"primitives":[
				{
					"attributes":{
						"POSITION":87,
						"NORMAL":88,
						"TEXCOORD_0":89
					},
					"indices":90,
					"material":3
				}
			]
		},
		{
			"name":"PRP_WindDoor",
			"primitives":[
				{
					"attributes":{
						"POSITION":91,
						"NORMAL":92,
						"TEXCOORD_0":93
					},
					"indices":94,
					"material":3
				}
			]
		}
	],
	"textures":[
		{
			"sampler":0,
			"source":0
		},
		{
			"sampler":0,
			"source":1
		},
		{
			"sampler":0,
			"source":2
		},
		{
			"sampler":0,
			"source":3
		},
		{
			"sampler":0,
			"source":4
		},
		{
			"sampler":0,
			"source":5
		},
		{
			"sampler":0,
			"source":6
		},
		{
			"sampler":0,
			"source":7
		},
		{
			"sampler":0,
			"source":8
		},
		{
			"sampler":0,
			"source":9
		},
		{
			"sampler":0,
			"source":10
		},
		{
			"sampler":0,
			"source":11
		},
		{
			"sampler":0,
			"source":12
		},
		{
			"sampler":0,
			"source":13
		},
		{
			"sampler":0,
			"source":14
		}
	],
	"images":[
		{
			"mimeType":"image/jpeg",
			"name":"dark_rock_02_nor_gl",
			"uri":"textures/dark_rock_02_nor_gl.jpg"
		},
		{
			"mimeType":"image/jpeg",
			"name":"dark_rock_02_Diffuse",
			"uri":"textures/dark_rock_02_Diffuse.jpg"
		},
		{
			"mimeType":"image/jpeg",
			"name":"dark_rock_02_Rough",
			"uri":"textures/dark_rock_02_Rough.jpg"
		},
		{
			"mimeType":"image/jpeg",
			"name":"dark_rock_nor_gl",
			"uri":"textures/rock_face_04_nor_gl.jpg"
		},
		{
			"mimeType":"image/jpeg",
			"name":"dark_rock_Diffuse",
			"uri":"textures/rock_face_04_Diffuse.jpg"
		},
		{
			"mimeType":"image/jpeg",
			"name":"dark_rock_Rough",
			"uri":"textures/rock_face_04_Rough.jpg"
		},
		{
			"mimeType":"image/jpeg",
			"name":"brown_mud_rocks_01_nor_gl",
			"uri":"textures/brown_mud_rocks_01_nor_gl.jpg"
		},
		{
			"mimeType":"image/jpeg",
			"name":"brown_mud_rocks_01_Diffuse",
			"uri":"textures/brown_mud_rocks_01_Diffuse.jpg"
		},
		{
			"mimeType":"image/jpeg",
			"name":"brown_mud_rocks_01_Rough",
			"uri":"textures/brown_mud_rocks_01_Rough.jpg"
		},
		{
			"mimeType":"image/jpeg",
			"name":"dark_wooden_planks_nor_gl",
			"uri":"textures/dark_wooden_planks_nor_gl.jpg"
		},
		{
			"mimeType":"image/jpeg",
			"name":"dark_wooden_planks_Diffuse",
			"uri":"textures/dark_wooden_planks_Diffuse.jpg"
		},
		{
			"mimeType":"image/jpeg",
			"name":"dark_wooden_planks_Rough",
			"uri":"textures/dark_wooden_planks_Rough.jpg"
		},
		{
			"mimeType":"image/jpeg",
			"name":"rusty_metal_02_nor_gl",
			"uri":"textures/rusty_metal_02_nor_gl.jpg"
		},
		{
			"mimeType":"image/jpeg",
			"name":"rusty_metal_02_Diffuse",
			"uri":"textures/rusty_metal_02_Diffuse.jpg"
		},
		{
			"mimeType":"image/jpeg",
			"name":"rusty_metal_02_Rough",
			"uri":"textures/rusty_metal_02_Rough.jpg"
		}
	],
	"accessors":[
		{
			"bufferView":0,
			"componentType":5126,
			"count":2400,
			"max":[
				53.49784851074219,
				2.8957643508911133,
				0.3642614483833313
			],
			"min":[
				49.21862030029297,
				-0.19786469638347626,
				-3.7707221508026123
			],
			"type":"VEC3"
		},
		{
			"bufferView":1,
			"componentType":5126,
			"count":2400,
			"type":"VEC3"
		},
		{
			"bufferView":2,
			"componentType":5126,
			"count":2400,
			"type":"VEC2"
		},
		{
			"bufferView":3,
			"componentType":5123,
			"count":2400,
			"type":"SCALAR"
		},
		{
			"bufferView":4,
			"componentType":5126,
			"count":2400,
			"max":[
				33.241886138916016,
				3.0150811672210693,
				3.1590962409973145
			],
			"min":[
				29.173540115356445,
				-0.2822456657886505,
				-0.600465714931488
			],
			"type":"VEC3"
		},
		{
			"bufferView":5,
			"componentType":5126,
			"count":2400,
			"type":"VEC3"
		},
		{
			"bufferView":6,
			"componentType":5126,
			"count":2400,
			"type":"VEC2"
		},
		{
			"bufferView":7,
			"componentType":5123,
			"count":2400,
			"type":"SCALAR"
		},
		{
			"bufferView":8,
			"componentType":5126,
			"count":2400,
			"max":[
				49.75199890136719,
				3.770462989807129,
				-7.708014011383057
			],
			"min":[
				46.929046630859375,
				0.6298926472663879,
				-12.177447319030762
			],
			"type":"VEC3"
		},
		{
			"bufferView":9,
			"componentType":5126,
			"count":2400,
			"type":"VEC3"
		},
		{
			"bufferView":10,
			"componentType":5126,
			"count":2400,
			"type":"VEC2"
		},
		{
			"bufferView":11,
			"componentType":5123,
			"count":2400,
			"type":"SCALAR"
		},
		{
			"bufferView":12,
			"componentType":5126,
			"count":2400,
			"max":[
				47.787776947021484,
				2.90330171585083,
				1.1841089725494385
			],
			"min":[
				43.15626907348633,
				-0.1476220041513443,
				-1.4357547760009766
			],
			"type":"VEC3"
		},
		{
			"bufferView":13,
			"componentType":5126,
			"count":2400,
			"type":"VEC3"
		},
		{
			"bufferView":14,
			"componentType":5126,
			"count":2400,
			"type":"VEC2"
		},
		{
			"bufferView":15,
			"componentType":5123,
			"count":2400,
			"type":"SCALAR"
		},
		{
			"bufferView":16,
			"componentType":5126,
			"count":23912,
			"max":[
				35.92500305175781,
				3.702341079711914,
				4.287618160247803
			],
			"min":[
				-3.2292563915252686,
				-0.12584124505519867,
				-4.585268020629883
			],
			"type":"VEC3"
		},
		{
			"bufferView":17,
			"componentType":5126,
			"count":23912,
			"type":"VEC3"
		},
		{
			"bufferView":18,
			"componentType":5126,
			"count":23912,
			"type":"VEC2"
		},
		{
			"bufferView":19,
			"componentType":5123,
			"count":125646,
			"type":"SCALAR"
		},
		{
			"bufferView":20,
			"componentType":5126,
			"count":10041,
			"max":[
				35.92500305175781,
				2.441802978515625,
				4.281980037689209
			],
			"min":[
				-3.213507652282715,
				-0.12584124505519867,
				-4.578122138977051
			],
			"type":"VEC3"
		},
		{
			"bufferView":21,
			"componentType":5126,
			"count":10041,
			"type":"VEC3"
		},
		{
			"bufferView":22,
			"componentType":5126,
			"count":10041,
			"type":"VEC2"
		},
		{
			"bufferView":23,
			"componentType":5123,
			"count":57666,
			"type":"SCALAR"
		},
		{
			"bufferView":24,
			"componentType":5126,
			"count":22990,
			"max":[
				73.53280639648438,
				3.2404932975769043,
				8.241332054138184
			],
			"min":[
				35.92500305175781,
				-0.1117052510380745,
				-4.575799942016602
			],
			"type":"VEC3"
		},
		{
			"bufferView":25,
			"componentType":5126,
			"count":22990,
			"type":"VEC3"
		},
		{
			"bufferView":26,
			"componentType":5126,
			"count":22990,
			"type":"VEC2"
		},
		{
			"bufferView":27,
			"componentType":5123,
			"count":125598,
			"type":"SCALAR"
		},
		{
			"bufferView":28,
			"componentType":5126,
			"count":8763,
			"max":[
				73.42052459716797,
				0.5040052533149719,
				8.185905456542969
			],
			"min":[
				35.92500305175781,
				-0.1117052510380745,
				-4.5743088722229
			],
			"type":"VEC3"
		},
		{
			"bufferView":29,
			"componentType":5126,
			"count":8763,
			"type":"VEC3"
		},
		{
			"bufferView":30,
			"componentType":5126,
			"count":8763,
			"type":"VEC2"
		},
		{
			"bufferView":31,
			"componentType":5123,
			"count":50076,
			"type":"SCALAR"
		},
		{
			"bufferView":32,
			"componentType":5126,
			"count":31752,
			"max":[
				67.07743072509766,
				3.7235939502716064,
				-4.4234700202941895
			],
			"min":[
				29.92500114440918,
				0.32600826025009155,
				-18.051021575927734
			],
			"type":"VEC3"
		},
		{
			"bufferView":33,
			"componentType":5126,
			"count":31752,
			"type":"VEC3"
		},
		{
			"bufferView":34,
			"componentType":5126,
			"count":31752,
			"type":"VEC2"
		},
		{
			"bufferView":35,
			"componentType":5123,
			"count":169032,
			"type":"SCALAR"
		},
		{
			"bufferView":36,
			"componentType":5126,
			"count":12299,
			"max":[
				66.97771453857422,
				2.8733391761779785,
				-4.425896644592285
			],
			"min":[
				29.92500114440918,
				0.21976277232170105,
				-17.970361709594727
			],
			"type":"VEC3"
		},
		{
			"bufferView":37,
			"componentType":5126,
			"count":12299,
			"type":"VEC3"
		},
		{
			"bufferView":38,
			"componentType":5126,
			"count":12299,
			"type":"VEC2"
		},
		{
			"bufferView":39,
			"componentType":5123,
			"count":69468,
			"type":"SCALAR"
		},
		{
			"bufferView":40,
			"componentType":5126,
			"count":16865,
			"max":[
				30.076995849609375,
				3.7163143157958984,
				-4.424347877502441
			],
			"min":[
				1.9540647268295288,
				0.2504643201828003,
				-15.882405281066895
			],
			"type":"VEC3"
		},
		{
			"bufferView":41,
			"componentType":5126,
			"count":16865,
			"type":"VEC3"
		},
		{
			"bufferView":42,
			"componentType":5126,
			"count":16865,
			"type":"VEC2"
		},
		{
			"bufferView":43,
			"componentType":5123,
			"count":85374,
			"type":"SCALAR"
		},
		{
			"bufferView":44,
			"componentType":5126,
			"count":5470,
			"max":[
				30.075000762939453,
				3.2650790214538574,
				-4.424602508544922
			],
			"min":[
				1.9906768798828125,
				0.25013476610183716,
				-15.876076698303223
			],
			"type":"VEC3"
		},
		{
			"bufferView":45,
			"componentType":5126,
			"count":5470,
			"type":"VEC3"
		},
		{
			"bufferView":46,
			"componentType":5126,
			"count":5470,
			"type":"VEC2"
		},
		{
			"bufferView":47,
			"componentType":5123,
			"count":29814,
			"type":"SCALAR"
		},
		{
			"bufferView":48,
			"componentType":5126,
			"count":12951,
			"max":[
				49.19620132446289,
				8.786115646362305,
				9.967704772949219
			],
			"min":[
				10.65634536743164,
				-0.022624269127845764,
				4.117819786071777
			],
			"type":"VEC3"
		},
		{
			"bufferView":49,
			"componentType":5126,
			"count":12951,
			"type":"VEC3"
		},
		{
			"bufferView":50,
			"componentType":5126,
			"count":12951,
			"type":"VEC2"
		},
		{
			"bufferView":51,
			"componentType":5123,
			"count":62964,
			"type":"SCALAR"
		},
		{
			"bufferView":52,
			"componentType":5126,
			"count":4177,
			"max":[
				49.17726516723633,
				6.3660478591918945,
				9.895188331604004
			],
			"min":[
				10.77365779876709,
				-0.04783383756875992,
				4.119524955749512
			],
			"type":"VEC3"
		},
		{
			"bufferView":53,
			"componentType":5126,
			"count":4177,
			"type":"VEC3"
		},
		{
			"bufferView":54,
			"componentType":5126,
			"count":4177,
			"type":"VEC2"
		},
		{
			"bufferView":55,
			"componentType":5123,
			"count":22350,
			"type":"SCALAR"
		},
		{
			"bufferView":56,
			"componentType":5126,
			"count":384,
			"max":[
				47.29999923706055,
				2.5299999713897705,
				-15.879999160766602
			],
			"min":[
				32.29999923706055,
				1,
				-16.059999465942383
			],
			"type":"VEC3"
		},
		{
			"bufferView":57,
			"componentType":5126,
			"count":384,
			"type":"VEC3"
		},
		{
			"bufferView":58,
			"componentType":5126,
			"count":384,
			"type":"VEC2"
		},
		{
			"bufferView":59,
			"componentType":5123,
			"count":576,
			"type":"SCALAR"
		},
		{
			"bufferView":60,
			"componentType":5126,
			"count":24,
			"max":[
				0.75,
				1,
				0.014999999664723873
			],
			"min":[
				-0.75,
				-1,
				-0.014999999664723873
			],
			"type":"VEC3"
		},
		{
			"bufferView":61,
			"componentType":5126,
			"count":24,
			"type":"VEC3"
		},
		{
			"bufferView":62,
			"componentType":5123,
			"count":36,
			"type":"SCALAR"
		},
		{
			"bufferView":63,
			"componentType":5126,
			"count":2400,
			"max":[
				73.3121337890625,
				2.8177056312561035,
				2.5120065212249756
			],
			"min":[
				70.60172271728516,
				-0.3582993745803833,
				-2.5329160690307617
			],
			"type":"VEC3"
		},
		{
			"bufferView":64,
			"componentType":5126,
			"count":2400,
			"type":"VEC3"
		},
		{
			"bufferView":65,
			"componentType":5126,
			"count":2400,
			"type":"VEC2"
		},
		{
			"bufferView":66,
			"componentType":5123,
			"count":2400,
			"type":"SCALAR"
		},
		{
			"bufferView":67,
			"componentType":5126,
			"count":5400,
			"max":[
				47.71345901489258,
				3.570822238922119,
				-15.707964897155762
			],
			"min":[
				31.629724502563477,
				0.5623082518577576,
				-18.54294204711914
			],
			"type":"VEC3"
		},
		{
			"bufferView":68,
			"componentType":5126,
			"count":5400,
			"type":"VEC3"
		},
		{
			"bufferView":69,
			"componentType":5126,
			"count":5400,
			"type":"VEC2"
		},
		{
			"bufferView":70,
			"componentType":5123,
			"count":5400,
			"type":"SCALAR"
		},
		{
			"bufferView":71,
			"componentType":5126,
			"count":1080,
			"max":[
				36,
				2.3845741748809814,
				4.659999847412109
			],
			"min":[
				12.800000190734863,
				0,
				-4.42962646484375
			],
			"type":"VEC3"
		},
		{
			"bufferView":72,
			"componentType":5126,
			"count":1080,
			"type":"VEC3"
		},
		{
			"bufferView":73,
			"componentType":5126,
			"count":1080,
			"type":"VEC2"
		},
		{
			"bufferView":74,
			"componentType":5123,
			"count":1620,
			"type":"SCALAR"
		},
		{
			"bufferView":75,
			"componentType":5126,
			"count":1368,
			"max":[
				70.5,
				2.3629310131073,
				1.6100000143051147
			],
			"min":[
				37.30000305175781,
				0,
				-4.4452972412109375
			],
			"type":"VEC3"
		},
		{
			"bufferView":76,
			"componentType":5126,
			"count":1368,
			"type":"VEC3"
		},
		{
			"bufferView":77,
			"componentType":5126,
			"count":1368,
			"type":"VEC2"
		},
		{
			"bufferView":78,
			"componentType":5123,
			"count":2052,
			"type":"SCALAR"
		},
		{
			"bufferView":79,
			"componentType":5126,
			"count":936,
			"max":[
				64.60301971435547,
				3.129999876022339,
				-3.835289478302002
			],
			"min":[
				30.27366065979004,
				0.3785128593444824,
				-12.074640274047852
			],
			"type":"VEC3"
		},
		{
			"bufferView":80,
			"componentType":5126,
			"count":936,
			"type":"VEC3"
		},
		{
			"bufferView":81,
			"componentType":5126,
			"count":936,
			"type":"VEC2"
		},
		{
			"bufferView":82,
			"componentType":5123,
			"count":1404,
			"type":"SCALAR"
		},
		{
			"bufferView":83,
			"componentType":5126,
			"count":1152,
			"max":[
				29.02552604675293,
				3.129999876022339,
				-3.6622118949890137
			],
			"min":[
				3.918239116668701,
				0.41368353366851807,
				-13.422163963317871
			],
			"type":"VEC3"
		},
		{
			"bufferView":84,
			"componentType":5126,
			"count":1152,
			"type":"VEC3"
		},
		{
			"bufferView":85,
			"componentType":5126,
			"count":1152,
			"type":"VEC2"
		},
		{
			"bufferView":86,
			"componentType":5123,
			"count":1728,
			"type":"SCALAR"
		},
		{
			"bufferView":87,
			"componentType":5126,
			"count":648,
			"max":[
				46.6209716796875,
				7.416635990142822,
				9.286661148071289
			],
			"min":[
				29.220409393310547,
				0,
				4.23386812210083
			],
			"type":"VEC3"
		},
		{
			"bufferView":88,
			"componentType":5126,
			"count":648,
			"type":"VEC3"
		},
		{
			"bufferView":89,
			"componentType":5126,
			"count":648,
			"type":"VEC2"
		},
		{
			"bufferView":90,
			"componentType":5123,
			"count":972,
			"type":"SCALAR"
		},
		{
			"bufferView":91,
			"componentType":5126,
			"count":24,
			"max":[
				29.38098907470703,
				2.299999952316284,
				8.336560249328613
			],
			"min":[
				27.796314239501953,
				0,
				6.5353498458862305
			],
			"type":"VEC3"
		},
		{
			"bufferView":92,
			"componentType":5126,
			"count":24,
			"type":"VEC3"
		},
		{
			"bufferView":93,
			"componentType":5126,
			"count":24,
			"type":"VEC2"
		},
		{
			"bufferView":94,
			"componentType":5123,
			"count":36,
			"type":"SCALAR"
		}
	],
	"bufferViews":[
		{
			"buffer":0,
			"byteLength":28800,
			"byteOffset":0,
			"target":34962
		},
		{
			"buffer":0,
			"byteLength":28800,
			"byteOffset":28800,
			"target":34962
		},
		{
			"buffer":0,
			"byteLength":19200,
			"byteOffset":57600,
			"target":34962
		},
		{
			"buffer":0,
			"byteLength":4800,
			"byteOffset":76800,
			"target":34963
		},
		{
			"buffer":0,
			"byteLength":28800,
			"byteOffset":81600,
			"target":34962
		},
		{
			"buffer":0,
			"byteLength":28800,
			"byteOffset":110400,
			"target":34962
		},
		{
			"buffer":0,
			"byteLength":19200,
			"byteOffset":139200,
			"target":34962
		},
		{
			"buffer":0,
			"byteLength":4800,
			"byteOffset":158400,
			"target":34963
		},
		{
			"buffer":0,
			"byteLength":28800,
			"byteOffset":163200,
			"target":34962
		},
		{
			"buffer":0,
			"byteLength":28800,
			"byteOffset":192000,
			"target":34962
		},
		{
			"buffer":0,
			"byteLength":19200,
			"byteOffset":220800,
			"target":34962
		},
		{
			"buffer":0,
			"byteLength":4800,
			"byteOffset":240000,
			"target":34963
		},
		{
			"buffer":0,
			"byteLength":28800,
			"byteOffset":244800,
			"target":34962
		},
		{
			"buffer":0,
			"byteLength":28800,
			"byteOffset":273600,
			"target":34962
		},
		{
			"buffer":0,
			"byteLength":19200,
			"byteOffset":302400,
			"target":34962
		},
		{
			"buffer":0,
			"byteLength":4800,
			"byteOffset":321600,
			"target":34963
		},
		{
			"buffer":0,
			"byteLength":286944,
			"byteOffset":326400,
			"target":34962
		},
		{
			"buffer":0,
			"byteLength":286944,
			"byteOffset":613344,
			"target":34962
		},
		{
			"buffer":0,
			"byteLength":191296,
			"byteOffset":900288,
			"target":34962
		},
		{
			"buffer":0,
			"byteLength":251292,
			"byteOffset":1091584,
			"target":34963
		},
		{
			"buffer":0,
			"byteLength":120492,
			"byteOffset":1342876,
			"target":34962
		},
		{
			"buffer":0,
			"byteLength":120492,
			"byteOffset":1463368,
			"target":34962
		},
		{
			"buffer":0,
			"byteLength":80328,
			"byteOffset":1583860,
			"target":34962
		},
		{
			"buffer":0,
			"byteLength":115332,
			"byteOffset":1664188,
			"target":34963
		},
		{
			"buffer":0,
			"byteLength":275880,
			"byteOffset":1779520,
			"target":34962
		},
		{
			"buffer":0,
			"byteLength":275880,
			"byteOffset":2055400,
			"target":34962
		},
		{
			"buffer":0,
			"byteLength":183920,
			"byteOffset":2331280,
			"target":34962
		},
		{
			"buffer":0,
			"byteLength":251196,
			"byteOffset":2515200,
			"target":34963
		},
		{
			"buffer":0,
			"byteLength":105156,
			"byteOffset":2766396,
			"target":34962
		},
		{
			"buffer":0,
			"byteLength":105156,
			"byteOffset":2871552,
			"target":34962
		},
		{
			"buffer":0,
			"byteLength":70104,
			"byteOffset":2976708,
			"target":34962
		},
		{
			"buffer":0,
			"byteLength":100152,
			"byteOffset":3046812,
			"target":34963
		},
		{
			"buffer":0,
			"byteLength":381024,
			"byteOffset":3146964,
			"target":34962
		},
		{
			"buffer":0,
			"byteLength":381024,
			"byteOffset":3527988,
			"target":34962
		},
		{
			"buffer":0,
			"byteLength":254016,
			"byteOffset":3909012,
			"target":34962
		},
		{
			"buffer":0,
			"byteLength":338064,
			"byteOffset":4163028,
			"target":34963
		},
		{
			"buffer":0,
			"byteLength":147588,
			"byteOffset":4501092,
			"target":34962
		},
		{
			"buffer":0,
			"byteLength":147588,
			"byteOffset":4648680,
			"target":34962
		},
		{
			"buffer":0,
			"byteLength":98392,
			"byteOffset":4796268,
			"target":34962
		},
		{
			"buffer":0,
			"byteLength":138936,
			"byteOffset":4894660,
			"target":34963
		},
		{
			"buffer":0,
			"byteLength":202380,
			"byteOffset":5033596,
			"target":34962
		},
		{
			"buffer":0,
			"byteLength":202380,
			"byteOffset":5235976,
			"target":34962
		},
		{
			"buffer":0,
			"byteLength":134920,
			"byteOffset":5438356,
			"target":34962
		},
		{
			"buffer":0,
			"byteLength":170748,
			"byteOffset":5573276,
			"target":34963
		},
		{
			"buffer":0,
			"byteLength":65640,
			"byteOffset":5744024,
			"target":34962
		},
		{
			"buffer":0,
			"byteLength":65640,
			"byteOffset":5809664,
			"target":34962
		},
		{
			"buffer":0,
			"byteLength":43760,
			"byteOffset":5875304,
			"target":34962
		},
		{
			"buffer":0,
			"byteLength":59628,
			"byteOffset":5919064,
			"target":34963
		},
		{
			"buffer":0,
			"byteLength":155412,
			"byteOffset":5978692,
			"target":34962
		},
		{
			"buffer":0,
			"byteLength":155412,
			"byteOffset":6134104,
			"target":34962
		},
		{
			"buffer":0,
			"byteLength":103608,
			"byteOffset":6289516,
			"target":34962
		},
		{
			"buffer":0,
			"byteLength":125928,
			"byteOffset":6393124,
			"target":34963
		},
		{
			"buffer":0,
			"byteLength":50124,
			"byteOffset":6519052,
			"target":34962
		},
		{
			"buffer":0,
			"byteLength":50124,
			"byteOffset":6569176,
			"target":34962
		},
		{
			"buffer":0,
			"byteLength":33416,
			"byteOffset":6619300,
			"target":34962
		},
		{
			"buffer":0,
			"byteLength":44700,
			"byteOffset":6652716,
			"target":34963
		},
		{
			"buffer":0,
			"byteLength":4608,
			"byteOffset":6697416,
			"target":34962
		},
		{
			"buffer":0,
			"byteLength":4608,
			"byteOffset":6702024,
			"target":34962
		},
		{
			"buffer":0,
			"byteLength":3072,
			"byteOffset":6706632,
			"target":34962
		},
		{
			"buffer":0,
			"byteLength":1152,
			"byteOffset":6709704,
			"target":34963
		},
		{
			"buffer":0,
			"byteLength":288,
			"byteOffset":6710856,
			"target":34962
		},
		{
			"buffer":0,
			"byteLength":288,
			"byteOffset":6711144,
			"target":34962
		},
		{
			"buffer":0,
			"byteLength":72,
			"byteOffset":6711432,
			"target":34963
		},
		{
			"buffer":0,
			"byteLength":28800,
			"byteOffset":6711504,
			"target":34962
		},
		{
			"buffer":0,
			"byteLength":28800,
			"byteOffset":6740304,
			"target":34962
		},
		{
			"buffer":0,
			"byteLength":19200,
			"byteOffset":6769104,
			"target":34962
		},
		{
			"buffer":0,
			"byteLength":4800,
			"byteOffset":6788304,
			"target":34963
		},
		{
			"buffer":0,
			"byteLength":64800,
			"byteOffset":6793104,
			"target":34962
		},
		{
			"buffer":0,
			"byteLength":64800,
			"byteOffset":6857904,
			"target":34962
		},
		{
			"buffer":0,
			"byteLength":43200,
			"byteOffset":6922704,
			"target":34962
		},
		{
			"buffer":0,
			"byteLength":10800,
			"byteOffset":6965904,
			"target":34963
		},
		{
			"buffer":0,
			"byteLength":12960,
			"byteOffset":6976704,
			"target":34962
		},
		{
			"buffer":0,
			"byteLength":12960,
			"byteOffset":6989664,
			"target":34962
		},
		{
			"buffer":0,
			"byteLength":8640,
			"byteOffset":7002624,
			"target":34962
		},
		{
			"buffer":0,
			"byteLength":3240,
			"byteOffset":7011264,
			"target":34963
		},
		{
			"buffer":0,
			"byteLength":16416,
			"byteOffset":7014504,
			"target":34962
		},
		{
			"buffer":0,
			"byteLength":16416,
			"byteOffset":7030920,
			"target":34962
		},
		{
			"buffer":0,
			"byteLength":10944,
			"byteOffset":7047336,
			"target":34962
		},
		{
			"buffer":0,
			"byteLength":4104,
			"byteOffset":7058280,
			"target":34963
		},
		{
			"buffer":0,
			"byteLength":11232,
			"byteOffset":7062384,
			"target":34962
		},
		{
			"buffer":0,
			"byteLength":11232,
			"byteOffset":7073616,
			"target":34962
		},
		{
			"buffer":0,
			"byteLength":7488,
			"byteOffset":7084848,
			"target":34962
		},
		{
			"buffer":0,
			"byteLength":2808,
			"byteOffset":7092336,
			"target":34963
		},
		{
			"buffer":0,
			"byteLength":13824,
			"byteOffset":7095144,
			"target":34962
		},
		{
			"buffer":0,
			"byteLength":13824,
			"byteOffset":7108968,
			"target":34962
		},
		{
			"buffer":0,
			"byteLength":9216,
			"byteOffset":7122792,
			"target":34962
		},
		{
			"buffer":0,
			"byteLength":3456,
			"byteOffset":7132008,
			"target":34963
		},
		{
			"buffer":0,
			"byteLength":7776,
			"byteOffset":7135464,
			"target":34962
		},
		{
			"buffer":0,
			"byteLength":7776,
			"byteOffset":7143240,
			"target":34962
		},
		{
			"buffer":0,
			"byteLength":5184,
			"byteOffset":7151016,
			"target":34962
		},
		{
			"buffer":0,
			"byteLength":1944,
			"byteOffset":7156200,
			"target":34963
		},
		{
			"buffer":0,
			"byteLength":288,
			"byteOffset":7158144,
			"target":34962
		},
		{
			"buffer":0,
			"byteLength":288,
			"byteOffset":7158432,
			"target":34962
		},
		{
			"buffer":0,
			"byteLength":192,
			"byteOffset":7158720,
			"target":34962
		},
		{
			"buffer":0,
			"byteLength":72,
			"byteOffset":7158912,
			"target":34963
		}
	],
	"samplers":[
		{
			"magFilter":9729,
			"minFilter":9987
		}
	],
	"buffers":[
		{
			"byteLength":7158984,
			"uri":"booth_map.bin"
		}
	]
}
