{
	"asset":{
		"generator":"Khronos glTF Blender I/O v5.2.39",
		"version":"2.0"
	},
	"scene":0,
	"scenes":[
		{
			"name":"Scene",
			"nodes":[
				0,
				1,
				2,
				3
			]
		}
	],
	"nodes":[
		{
			"mesh":0,
			"name":"CHK_Chip_00",
			"translation":[
				0,
				-1,
				0
			]
		},
		{
			"mesh":1,
			"name":"CHK_Chip_01",
			"translation":[
				0.5,
				-1,
				0
			]
		},
		{
			"mesh":2,
			"name":"CHK_Chip_02",
			"translation":[
				1,
				-1,
				0
			]
		},
		{
			"mesh":3,
			"name":"CHK_Chip_03",
			"translation":[
				1.5,
				-1,
				0
			]
		}
	],
	"materials":[
		{
			"doubleSided":true,
			"name":"MAT_RockWall_EXPORT",
			"normalTexture":{
				"index":0
			},
			"pbrMetallicRoughness":{
				"baseColorTexture":{
					"index":1
				},
				"metallicFactor":0,
				"metallicRoughnessTexture":{
					"index":2
				}
			}
		}
	],
	"meshes":[
		{
			"name":"CHK_Chip_00",
			"primitives":[
				{
					"attributes":{
						"POSITION":0,
						"NORMAL":1,
						"TEXCOORD_0":2
					},
					"indices":3,
					"material":0
				}
			]
		},
		{
			"name":"CHK_Chip_01",
			"primitives":[
				{
					"attributes":{
						"POSITION":4,
						"NORMAL":5,
						"TEXCOORD_0":6
					},
					"indices":7,
					"material":0
				}
			]
		},
		{
			"name":"CHK_Chip_02",
			"primitives":[
				{
					"attributes":{
						"POSITION":8,
						"NORMAL":9,
						"TEXCOORD_0":10
					},
					"indices":11,
					"material":0
				}
			]
		},
		{
			"name":"CHK_Chip_03",
			"primitives":[
				{
					"attributes":{
						"POSITION":12,
						"NORMAL":13,
						"TEXCOORD_0":14
					},
					"indices":15,
					"material":0
				}
			]
		}
	],
	"textures":[
		{
			"sampler":0,
			"source":0
		},
		{
			"sampler":0,
			"source":1
		},
		{
			"sampler":0,
			"source":2
		}
	],
	"images":[
		{
			"mimeType":"image/jpeg",
			"name":"rock_face_04_nor_gl",
			"uri":"textures/rock_face_04_nor_gl.jpg"
		},
		{
			"mimeType":"image/jpeg",
			"name":"rock_face_04_Diffuse",
			"uri":"textures/rock_face_04_Diffuse.jpg"
		},
		{
			"mimeType":"image/jpeg",
			"name":"rock_face_04_Rough",
			"uri":"textures/rock_face_04_Rough.jpg"
		}
	],
	"accessors":[
		{
			"bufferView":0,
			"componentType":5126,
			"count":1554,
			"max":[
				0.07500000298023224,
				0.06596026569604874,
				0.020471680909395218
			],
			"min":[
				-0.07499999552965164,
				-0.06596026569604874,
				-0.020471680909395218
			],
			"type":"VEC3"
		},
		{
			"bufferView":1,
			"componentType":5126,
			"count":1554,
			"type":"VEC3"
		},
		{
			"bufferView":2,
			"componentType":5126,
			"count":1554,
			"type":"VEC2"
		},
		{
			"bufferView":3,
			"componentType":5123,
			"count":6930,
			"type":"SCALAR"
		},
		{
			"bufferView":4,
			"componentType":5126,
			"count":778,
			"max":[
				0.07499999552965164,
				0.049379028379917145,
				0.02261662483215332
			],
			"min":[
				-0.07499999552965164,
				-0.049379028379917145,
				-0.02261662483215332
			],
			"type":"VEC3"
		},
		{
			"bufferView":5,
			"componentType":5126,
			"count":778,
			"type":"VEC3"
		},
		{
			"bufferView":6,
			"componentType":5126,
			"count":778,
			"type":"VEC2"
		},
		{
			"bufferView":7,
			"componentType":5123,
			"count":3048,
			"type":"SCALAR"
		},
		{
			"bufferView":8,
			"componentType":5126,
			"count":644,
			"max":[
				0.07499999552965164,
				0.05432172119617462,
				0.025477837771177292
			],
			"min":[
				-0.07499999552965164,
				-0.05432173237204552,
				-0.025477837771177292
			],
			"type":"VEC3"
		},
		{
			"bufferView":9,
			"componentType":5126,
			"count":644,
			"type":"VEC3"
		},
		{
			"bufferView":10,
			"componentType":5126,
			"count":644,
			"type":"VEC2"
		},
		{
			"bufferView":11,
			"componentType":5123,
			"count":2772,
			"type":"SCALAR"
		},
		{
			"bufferView":12,
			"componentType":5126,
			"count":1808,
			"max":[
				0.05950124189257622,
				0.07500000298023224,
				0.018469881266355515
			],
			"min":[
				-0.05950124189257622,
				-0.07500000298023224,
				-0.018469881266355515
			],
			"type":"VEC3"
		},
		{
			"bufferView":13,
			"componentType":5126,
			"count":1808,
			"type":"VEC3"
		},
		{
			"bufferView":14,
			"componentType":5126,
			"count":1808,
			"type":"VEC2"
		},
		{
			"bufferView":15,
			"componentType":5123,
			"count":8574,
			"type":"SCALAR"
		}
	],
	"bufferViews":[
		{
			"buffer":0,
			"byteLength":18648,
			"byteOffset":0,
			"target":34962
		},
		{
			"buffer":0,
			"byteLength":18648,
			"byteOffset":18648,
			"target":34962
		},
		{
			"buffer":0,
			"byteLength":12432,
			"byteOffset":37296,
			"target":34962
		},
		{
			"buffer":0,
			"byteLength":13860,
			"byteOffset":49728,
			"target":34963
		},
		{
			"buffer":0,
			"byteLength":9336,
			"byteOffset":63588,
			"target":34962
		},
		{
			"buffer":0,
			"byteLength":9336,
			"byteOffset":72924,
			"target":34962
		},
		{
			"buffer":0,
			"byteLength":6224,
			"byteOffset":82260,
			"target":34962
		},
		{
			"buffer":0,
			"byteLength":6096,
			"byteOffset":88484,
			"target":34963
		},
		{
			"buffer":0,
			"byteLength":7728,
			"byteOffset":94580,
			"target":34962
		},
		{
			"buffer":0,
			"byteLength":7728,
			"byteOffset":102308,
			"target":34962
		},
		{
			"buffer":0,
			"byteLength":5152,
			"byteOffset":110036,
			"target":34962
		},
		{
			"buffer":0,
			"byteLength":5544,
			"byteOffset":115188,
			"target":34963
		},
		{
			"buffer":0,
			"byteLength":21696,
			"byteOffset":120732,
			"target":34962
		},
		{
			"buffer":0,
			"byteLength":21696,
			"byteOffset":142428,
			"target":34962
		},
		{
			"buffer":0,
			"byteLength":14464,
			"byteOffset":164124,
			"target":34962
		},
		{
			"buffer":0,
			"byteLength":17148,
			"byteOffset":178588,
			"target":34963
		}
	],
	"samplers":[
		{
			"magFilter":9729,
			"minFilter":9987
		}
	],
	"buffers":[
		{
			"byteLength":195736,
			"uri":"mine_chips.bin"
		}
	]
}
