{
	"asset":{
		"generator":"Khronos glTF Blender I/O v5.2.39",
		"version":"2.0"
	},
	"scene":0,
	"scenes":[
		{
			"name":"Scene",
			"nodes":[
				0
			]
		}
	],
	"nodes":[
		{
			"mesh":0,
			"name":"ORE_Lump"
		}
	],
	"materials":[
		{
			"doubleSided":true,
			"name":"MAT_Ore",
			"pbrMetallicRoughness":{
				"baseColorFactor":[
					0.019999999552965164,
					0.02199999988079071,
					0.02800000086426735,
					1
				],
				"metallicFactor":0.550000011920929,
				"roughnessFactor":0.30000001192092896
			}
		}
	],
	"meshes":[
		{
			"name":"ORE_Lump",
			"primitives":[
				{
					"attributes":{
						"POSITION":0,
						"NORMAL":1
					},
					"indices":2,
					"material":0
				}
			]
		}
	],
	"accessors":[
		{
			"bufferView":0,
			"componentType":5126,
			"count":766,
			"max":[
				0.14034567773342133,
				0.09000484645366669,
				0.10924377292394638
			],
			"min":[
				-0.1282491683959961,
				-0.09295190870761871,
				-0.11185698211193085
			],
			"type":"VEC3"
		},
		{
			"bufferView":1,
			"componentType":5126,
			"count":766,
			"type":"VEC3"
		},
		{
			"bufferView":2,
			"componentType":5123,
			"count":828,
			"type":"SCALAR"
		}
	],
	"bufferViews":[
		{
			"buffer":0,
			"byteLength":9192,
			"byteOffset":0,
			"target":34962
		},
		{
			"buffer":0,
			"byteLength":9192,
			"byteOffset":9192,
			"target":34962
		},
		{
			"buffer":0,
			"byteLength":1656,
			"byteOffset":18384,
			"target":34963
		}
	],
	"buffers":[
		{
			"byteLength":20040,
			"uri":"ore.bin"
		}
	]
}
