{"asset":{"generator":"Khronos glTF Blender I/O v5.2.39","version":"2.0"},"scene":0,"scenes":[{"name":"Scene","nodes":[0,1,2,3,4,5,6,7,8,9,10,11,12,13,14,15,16,17,18,19,20,21,22,23,24,25,26,27,28,29,30,31,32,33,34,35,36,37,38,39,40,41,42,43,44,45,46,47,48]}],"nodes":[{"mesh":0,"name":"COL_straight_floor-convcolonly","translation":[0,-0.25,0]},{"mesh":1,"name":"COL_straight_wall_E-convcolonly","translation":[3.3499999046325684,2.799999952316284,0]},{"mesh":2,"name":"COL_straight_wall_W-convcolonly","translation":[-3.3499999046325684,2.799999952316284,0]},{"mesh":3,"name":"PRP_straight_bracket_0","translation":[3.2899999618530273,1.25,2.625]},{"mesh":4,"name":"PRP_straight_bracket_1","translation":[3.2899999618530273,1.25,0.875]},{"mesh":5,"name":"PRP_straight_bracket_2","translation":[3.2899999618530273,1.25,-0.875]},{"mesh":6,"name":"PRP_straight_bracket_3","translation":[3.2899999618530273,1.25,-2.625]},{"mesh":7,"name":"PRP_straight_bulb","translation":[3.1500000953674316,4.449999809265137,-1.2000000476837158]},{"mesh":8,"name":"PRP_straight_cable"},{"mesh":9,"name":"PRP_straight_pipe","rotation":[0.7071068286895752,0,0,0.7071068286895752],"translation":[3.0999999046325684,1.25,0]},{"mesh":10,"name":"PRP_straight_rock_0","rotation":[0.14988860487937927,0.14988858997821808,-0.22389185428619385,0.9512830376625061],"scale":[0.06162629649043083,0.047019992023706436,0.0686885416507721],"translation":[3.087435007095337,0.029131487011909485,-1.2191593647003174]},{"mesh":11,"name":"PRP_straight_rock_1","rotation":[-0.07585982978343964,-0.07585982978343964,0.0657556876540184,0.992051899433136],"scale":[0.0796566754579544,0.044949039816856384,0.07150546461343765],"translation":[-1.0457110404968262,0.028211690485477448,-0.4274151027202606]},{"mesh":12,"name":"PRP_straight_rock_2","rotation":[-0.3405091166496277,-0.3405091166496277,0.1841406673192978,0.8568543195724487],"scale":[0.10729978233575821,0.08418262749910355,0.09793242067098618],"translation":[1.9486926794052124,0.04111472889780998,-1.2291632890701294]},{"mesh":13,"name":"PRP_straight_rock_3","rotation":[0.3885674774646759,0.3885674774646759,0.19061122834682465,0.8134483695030212],"scale":[0.08634406328201294,0.07517044246196747,0.11287591606378555],"translation":[-2.2717478275299072,0.03333495557308197,-1.8457553386688232]},{"mesh":14,"name":"PRP_straight_rock_4","rotation":[0.681016743183136,0.681016743183136,0.0835723876953125,0.25582829117774963],"scale":[0.06676128506660461,0.05486683547496796,0.10046932101249695],"translation":[0.9932914972305298,0.028509870171546936,2.546194314956665]},{"mesh":15,"name":"PRP_straight_rock_5","rotation":[0.5646015405654907,0.5646015405654907,0.16994383931159973,0.5775547027587891],"scale":[0.09760169684886932,0.05923083797097206,0.11035636812448502],"translation":[-2.7219765186309814,0.037529028952121735,-3.018606662750244]},{"mesh":16,"name":"PRP_straight_rock_6","rotation":[-0.1798696368932724,-0.1798696368932724,-0.5329685211181641,0.8069934248924255],"scale":[0.049994513392448425,0.04419054090976715,0.05384643375873566],"translation":[-2.0637946128845215,0.017948651686310768,-2.7751986980438232]},{"mesh":17,"name":"PRP_straight_rock_7","rotation":[-0.687240481376648,-0.6872405409812927,0.07341418415307999,0.22363229095935822],"scale":[0.06709302216768265,0.05266101285815239,0.09103500097990036],"translation":[-2.0763800144195557,0.030749790370464325,-0.15044215321540833]},{"mesh":18,"name":"PRP_straight_rock_8","rotation":[-0.45810794830322266,-0.45810794830322266,0.19159696996212006,0.7372686266899109],"scale":[0.09480011463165283,0.05422934517264366,0.06411536037921906],"translation":[-2.0185136795043945,0.026222888380289078,-0.39506807923316956]},{"mesh":19,"name":"PRP_straight_rock_9","rotation":[-0.1128317192196846,-0.1128317192196846,0.0915970727801323,0.9829282760620117],"scale":[0.11219847947359085,0.08893600851297379,0.17151810228824615],"translation":[1.1291226148605347,0.047212909907102585,2.421619415283203]},{"mesh":20,"name":"PRP_straight_rock_10","rotation":[0.153058260679245,0.1530582755804062,-0.23182979226112366,0.9483677744865417],"scale":[0.12116951495409012,0.08340555429458618,0.11009179055690765],"translation":[-1.18751859664917,0.03284871578216553,0.43826037645339966]},{"mesh":21,"name":"PRP_straight_rock_11","rotation":[-0.6655876040458679,-0.6655876636505127,0.10366654396057129,0.32130900025367737],"scale":[0.0481388121843338,0.03610794618725777,0.07352527976036072],"translation":[1.4526090621948242,0.020800556987524033,-2.5977516174316406]},{"mesh":22,"name":"PRP_straight_socket","translation":[3.1500000953674316,4.519999980926514,-1.2000000476837158]},{"mesh":23,"name":"PRP_straight_wire","translation":[3.1500000953674316,4.690000057220459,-1.2000000476837158]},{"mesh":24,"name":"SHL_straight"},{"name":"SLOT_Pocket_straight_0","translation":[-3.4200000762939453,1.899999976158142,1.75]},{"name":"SLOT_Pocket_straight_1","translation":[3.4200000762939453,1.899999976158142,1.75]},{"name":"SLOT_Pocket_straight_2","translation":[-3.4200000762939453,1.899999976158142,-1.75]},{"name":"SLOT_Pocket_straight_3","translation":[3.4200000762939453,1.899999976158142,-1.75]},{"mesh":25,"name":"TMB_straight_0_cap","rotation":[-0.004090368747711182,0.003265398321673274,0.0007681754068471491,0.9999859929084778],"translation":[0,4.832794189453125,2.625]},{"mesh":26,"name":"TMB_straight_0_lag_0","rotation":[0.003431893652305007,0.00859688501805067,0.013114810921251774,0.9998711347579956],"translation":[-2.257188320159912,5.047837734222412,3.5]},{"mesh":27,"name":"TMB_straight_0_lag_1","rotation":[0.014104426838457584,-0.035472188144922256,0.006816997192800045,0.9992479681968689],"translation":[-2.7024641036987305,5.0127949714660645,3.5]},{"mesh":28,"name":"TMB_straight_0_post_L","rotation":[0.002270870842039585,0.00109095498919487,0.006410954520106316,0.9999762773513794],"translation":[-3.3370466232299805,2.3499999046325684,2.6389660835266113]},{"mesh":29,"name":"TMB_straight_0_post_R","rotation":[9.772310295375064e-05,-0.001989806769415736,0.0069377184845507145,0.9999739527702332],"translation":[3.324627637863159,2.3499999046325684,2.6426799297332764]},{"mesh":30,"name":"TMB_straight_1_cap","rotation":[0.0018026496982201934,-0.0018572177505120635,0.000727427308447659,0.9999963641166687],"translation":[0,4.83823823928833,0.875]},{"mesh":31,"name":"TMB_straight_1_lag_0","rotation":[-0.009789584204554558,0.027879972010850906,0.009884138591587543,0.9995144605636597],"translation":[0.5133711695671082,5.0316948890686035,0]},{"mesh":32,"name":"TMB_straight_1_lag_1","rotation":[0.015147152356803417,-0.021305011585354805,-0.0065628173761069775,0.9996368288993835],"translation":[-2.5088698863983154,5.0415120124816895,0]},{"mesh":33,"name":"TMB_straight_1_post_L","rotation":[0.004753532353788614,0.0024706560652703047,0.004777410067617893,0.999974250793457],"translation":[-3.3452882766723633,2.3499999046325684,0.8826607465744019]},{"mesh":34,"name":"TMB_straight_1_post_R","rotation":[0.000629445887170732,-0.013206596486270428,0.006567005533725023,0.9998910427093506],"translation":[3.3355565071105957,2.3499999046325684,0.880104124546051]},{"mesh":35,"name":"TMB_straight_2_cap","rotation":[-0.0018643628573045135,0.0009473328245803714,-0.0019511908758431673,0.9999960064888],"translation":[0,4.86501932144165,-0.875]},{"mesh":36,"name":"TMB_straight_2_lag_0","rotation":[-0.016115939244627953,0.019587691873311996,0.007219788618385792,0.9996522665023804],"translation":[0.47937121987342834,5.014125823974609,-1.75]},{"mesh":37,"name":"TMB_straight_2_lag_1","rotation":[0.019925033673644066,-0.02172401174902916,-0.009228694252669811,0.999522864818573],"translation":[-2.6100001335144043,5.048827648162842,-1.75]},{"mesh":38,"name":"TMB_straight_2_post_L","rotation":[-0.0011878120712935925,-0.010435453616082668,-0.0038697137497365475,0.9999373555183411],"translation":[-3.310792922973633,2.3499999046325684,-0.8597226142883301]},{"mesh":39,"name":"TMB_straight_2_post_R","rotation":[0.0025145153049379587,0.0021807390730828047,-0.003974058665335178,0.9999865889549255],"translation":[3.3295586109161377,2.3499999046325684,-0.8565682768821716]},{"mesh":40,"name":"TMB_straight_3_cap","rotation":[0.0037120471242815256,-0.0004925399553030729,0.004196032881736755,0.9999842047691345],"translation":[0,4.845637798309326,-2.625]},{"mesh":41,"name":"TMB_straight_3_lag_0","rotation":[0.01450172159820795,-0.00837238784879446,0.006769689731299877,0.9998369216918945],"translation":[0.29663944244384766,5.059156894683838,-1.75]},{"mesh":42,"name":"TMB_straight_3_lag_1","rotation":[-0.014217338524758816,-0.02693280205130577,0.009334681555628777,0.9994925856590271],"translation":[-0.8473730087280273,5.0674638748168945,-3.5]},{"mesh":43,"name":"TMB_straight_3_post_L","rotation":[-0.007166861090809107,-0.009962243027985096,0.0005032106419093907,0.9999246597290039],"translation":[-3.3345682621002197,2.3499999046325684,-2.6317460536956787]},{"mesh":44,"name":"TMB_straight_3_post_R","rotation":[0.003981210757046938,-0.007548936177045107,0.005590127315372229,0.9999479651451111],"translation":[3.3146839141845703,2.3499999046325684,-2.60735821723938]}],"materials":[{"doubleSided":true,"name":"MAT_RustyMetal_EXPORT","normalTexture":{"index":0},"pbrMetallicRoughness":{"baseColorTexture":{"index":1},"metallicFactor":0,"metallicRoughnessTexture":{"index":2}}},{"doubleSided":true,"name":"MAT_Bulb"},{"doubleSided":true,"name":"MAT_Cable","pbrMetallicRoughness":{"baseColorFactor":[0.019999999552965164,0.019999999552965164,0.019999999552965164,1],"metallicFactor":0,"roughnessFactor":0.550000011920929}},{"doubleSided":true,"name":"MAT_Rock_EXPORT","normalTexture":{"index":3},"pbrMetallicRoughness":{"baseColorTexture":{"index":4},"metallicFactor":0,"metallicRoughnessTexture":{"index":5}}},{"doubleSided":true,"name":"MAT_RockWall_EXPORT","normalTexture":{"index":6},"pbrMetallicRoughness":{"baseColorTexture":{"index":7},"metallicFactor":0,"metallicRoughnessTexture":{"index":8}}},{"doubleSided":true,"name":"MAT_Floor_EXPORT","normalTexture":{"index":9},"pbrMetallicRoughness":{"baseColorTexture":{"index":10},"metallicFactor":0,"metallicRoughnessTexture":{"index":11}}},{"doubleSided":true,"name":"MAT_Timber_EXPORT","normalTexture":{"index":12},"pbrMetallicRoughness":{"baseColorTexture":{"index":13},"metallicFactor":0,"metallicRoughnessTexture":{"index":14}}}],"meshes":[{"name":"COL_straight_floor-convcolonly","primitives":[{"attributes":{"POSITION":0,"NORMAL":1},"indices":2}]},{"name":"COL_straight_wall_E-convcolonly","primitives":[{"attributes":{"POSITION":3,"NORMAL":4},"indices":2}]},{"name":"COL_straight_wall_W-convcolonly","primitives":[{"attributes":{"POSITION":5,"NORMAL":6},"indices":2}]},{"name":"PRP_straight_bracket_0","primitives":[{"attributes":{"POSITION":7,"NORMAL":8,"TEXCOORD_0":9},"indices":2,"material":0}]},{"name":"PRP_straight_bracket_1","primitives":[{"attributes":{"POSITION":10,"NORMAL":11,"TEXCOORD_0":12},"indices":2,"material":0}]},{"name":"PRP_straight_bracket_2","primitives":[{"attributes":{"POSITION":13,"NORMAL":14,"TEXCOORD_0":15},"indices":2,"material":0}]},{"name":"PRP_straight_bracket_3","primitives":[{"attributes":{"POSITION":16,"NORMAL":17,"TEXCOORD_0":18},"indices":2,"material":0}]},{"name":"PRP_straight_bulb","primitives":[{"attributes":{"POSITION":19,"NORMAL":20},"indices":21,"material":1}]},{"name":"PRP_straight_cable","primitives":[{"attributes":{"POSITION":22,"NORMAL":23,"TEXCOORD_0":24},"indices":25,"material":2}]},{"name":"PRP_straight_pipe","primitives":[{"attributes":{"POSITION":26,"NORMAL":27,"TEXCOORD_0":28},"indices":29,"material":0}]},{"name":"PRP_straight_rock_0","primitives":[{"attributes":{"POSITION":30,"NORMAL":31,"TEXCOORD_0":32},"indices":33,"material":3}]},{"name":"PRP_straight_rock_1","primitives":[{"attributes":{"POSITION":34,"NORMAL":35,"TEXCOORD_0":36},"indices":37,"material":3}]},{"name":"PRP_straight_rock_2","primitives":[{"attributes":{"POSITION":38,"NORMAL":39,"TEXCOORD_0":40},"indices":41,"material":3}]},{"name":"PRP_straight_rock_3","primitives":[{"attributes":{"POSITION":42,"NORMAL":43,"TEXCOORD_0":44},"indices":45,"material":3}]},{"name":"PRP_straight_rock_4","primitives":[{"attributes":{"POSITION":46,"NORMAL":47,"TEXCOORD_0":48},"indices":49,"material":3}]},{"name":"PRP_straight_rock_5","primitives":[{"attributes":{"POSITION":50,"NORMAL":51,"TEXCOORD_0":52},"indices":53,"material":3}]},{"name":"PRP_straight_rock_6","primitives":[{"attributes":{"POSITION":54,"NORMAL":55,"TEXCOORD_0":56},"indices":57,"material":3}]},{"name":"PRP_straight_rock_7","primitives":[{"attributes":{"POSITION":58,"NORMAL":59,"TEXCOORD_0":60},"indices":61,"material":3}]},{"name":"PRP_straight_rock_8","primitives":[{"attributes":{"POSITION":62,"NORMAL":63,"TEXCOORD_0":64},"indices":65,"material":3}]},{"name":"PRP_straight_rock_9","primitives":[{"attributes":{"POSITION":66,"NORMAL":67,"TEXCOORD_0":68},"indices":69,"material":3}]},{"name":"PRP_straight_rock_10","primitives":[{"attributes":{"POSITION":70,"NORMAL":71,"TEXCOORD_0":72},"indices":73,"material":3}]},{"name":"PRP_straight_rock_11","primitives":[{"attributes":{"POSITION":74,"NORMAL":75,"TEXCOORD_0":76},"indices":77,"material":3}]},{"name":"PRP_straight_socket","primitives":[{"attributes":{"POSITION":78,"NORMAL":79},"indices":80,"material":2}]},{"name":"PRP_straight_wire","primitives":[{"attributes":{"POSITION":81,"NORMAL":82},"indices":83,"material":2}]},{"name":"SHL_straight","primitives":[{"attributes":{"POSITION":84,"NORMAL":85,"TEXCOORD_0":86},"indices":87,"material":4},{"attributes":{"POSITION":88,"NORMAL":89,"TEXCOORD_0":90},"indices":91,"material":5}]},{"name":"TMB_straight_0_cap","primitives":[{"attributes":{"POSITION":92,"NORMAL":93,"TEXCOORD_0":94},"indices":95,"material":6}]},{"name":"TMB_straight_0_lag_0","primitives":[{"attributes":{"POSITION":96,"NORMAL":97,"TEXCOORD_0":98},"indices":95,"material":6}]},{"name":"TMB_straight_0_lag_1","primitives":[{"attributes":{"POSITION":99,"NORMAL":100,"TEXCOORD_0":101},"indices":95,"material":6}]},{"name":"TMB_straight_0_post_L","primitives":[{"attributes":{"POSITION":102,"NORMAL":103,"TEXCOORD_0":104},"indices":95,"material":6}]},{"name":"TMB_straight_0_post_R","primitives":[{"attributes":{"POSITION":105,"NORMAL":106,"TEXCOORD_0":107},"indices":95,"material":6}]},{"name":"TMB_straight_1_cap","primitives":[{"attributes":{"POSITION":108,"NORMAL":109,"TEXCOORD_0":110},"indices":95,"material":6}]},{"name":"TMB_straight_1_lag_0","primitives":[{"attributes":{"POSITION":111,"NORMAL":112,"TEXCOORD_0":113},"indices":95,"material":6}]},{"name":"TMB_straight_1_lag_1","primitives":[{"attributes":{"POSITION":114,"NORMAL":115,"TEXCOORD_0":116},"indices":95,"material":6}]},{"name":"TMB_straight_1_post_L","primitives":[{"attributes":{"POSITION":117,"NORMAL":118,"TEXCOORD_0":119},"indices":95,"material":6}]},{"name":"TMB_straight_1_post_R","primitives":[{"attributes":{"POSITION":120,"NORMAL":121,"TEXCOORD_0":122},"indices":95,"material":6}]},{"name":"TMB_straight_2_cap","primitives":[{"attributes":{"POSITION":123,"NORMAL":124,"TEXCOORD_0":125},"indices":95,"material":6}]},{"name":"TMB_straight_2_lag_0","primitives":[{"attributes":{"POSITION":126,"NORMAL":127,"TEXCOORD_0":128},"indices":95,"material":6}]},{"name":"TMB_straight_2_lag_1","primitives":[{"attributes":{"POSITION":129,"NORMAL":130,"TEXCOORD_0":131},"indices":95,"material":6}]},{"name":"TMB_straight_2_post_L","primitives":[{"attributes":{"POSITION":132,"NORMAL":133,"TEXCOORD_0":134},"indices":95,"material":6}]},{"name":"TMB_straight_2_post_R","primitives":[{"attributes":{"POSITION":135,"NORMAL":136,"TEXCOORD_0":137},"indices":95,"material":6}]},{"name":"TMB_straight_3_cap","primitives":[{"attributes":{"POSITION":138,"NORMAL":139,"TEXCOORD_0":140},"indices":95,"material":6}]},{"name":"TMB_straight_3_lag_0","primitives":[{"attributes":{"POSITION":141,"NORMAL":142,"TEXCOORD_0":143},"indices":95,"material":6}]},{"name":"TMB_straight_3_lag_1","primitives":[{"attributes":{"POSITION":144,"NORMAL":145,"TEXCOORD_0":146},"indices":95,"material":6}]},{"name":"TMB_straight_3_post_L","primitives":[{"attributes":{"POSITION":147,"NORMAL":148,"TEXCOORD_0":149},"indices":95,"material":6}]},{"name":"TMB_straight_3_post_R","primitives":[{"attributes":{"POSITION":150,"NORMAL":151,"TEXCOORD_0":152},"indices":95,"material":6}]}],"textures":[{"sampler":0,"source":0},{"sampler":0,"source":1},{"sampler":0,"source":2},{"sampler":0,"source":3},{"sampler":0,"source":4},{"sampler":0,"source":5},{"sampler":0,"source":6},{"sampler":0,"source":7},{"sampler":0,"source":8},{"sampler":0,"source":9},{"sampler":0,"source":10},{"sampler":0,"source":11},{"sampler":0,"source":12},{"sampler":0,"source":13},{"sampler":0,"source":14}],"images":[{"mimeType":"image/jpeg","name":"rusty_metal_02_nor_gl","uri":"textures/rusty_metal_02_nor_gl.jpg"},{"mimeType":"image/jpeg","name":"rusty_metal_02_Diffuse","uri":"textures/rusty_metal_02_Diffuse.jpg"},{"mimeType":"image/jpeg","name":"rusty_metal_02_Rough","uri":"textures/rusty_metal_02_Rough.jpg"},{"mimeType":"image/jpeg","name":"dark_rock_02_nor_gl","uri":"textures/dark_rock_02_nor_gl.jpg"},{"mimeType":"image/jpeg","name":"dark_rock_02_Diffuse","uri":"textures/dark_rock_02_Diffuse.jpg"},{"mimeType":"image/jpeg","name":"dark_rock_02_Rough","uri":"textures/dark_rock_02_Rough.jpg"},{"mimeType":"image/jpeg","name":"dark_rock_nor_gl","uri":"textures/rock_face_04_nor_gl.jpg"},{"mimeType":"image/jpeg","name":"dark_rock_Diffuse","uri":"textures/rock_face_04_Diffuse.jpg"},{"mimeType":"image/jpeg","name":"dark_rock_Rough","uri":"textures/rock_face_04_Rough.jpg"},{"mimeType":"image/jpeg","name":"brown_mud_rocks_01_nor_gl","uri":"textures/brown_mud_rocks_01_nor_gl.jpg"},{"mimeType":"image/jpeg","name":"brown_mud_rocks_01_Diffuse","uri":"textures/brown_mud_rocks_01_Diffuse.jpg"},{"mimeType":"image/jpeg","name":"brown_mud_rocks_01_Rough","uri":"textures/brown_mud_rocks_01_Rough.jpg"},{"mimeType":"image/jpeg","name":"dark_wooden_planks_nor_gl","uri":"textures/dark_wooden_planks_nor_gl.jpg"},{"mimeType":"image/jpeg","name":"dark_wooden_planks_Diffuse","uri":"textures/dark_wooden_planks_Diffuse.jpg"},{"mimeType":"image/jpeg","name":"dark_wooden_planks_Rough","uri":"textures/dark_wooden_planks_Rough.jpg"}],"accessors":[{"bufferView":0,"componentType":5126,"count":24,"max":[3.5,0.25,3.5],"min":[-3.5,-0.25,-3.5],"type":"VEC3"},{"bufferView":1,"componentType":5126,"count":24,"type":"VEC3"},{"bufferView":2,"componentType":5123,"count":36,"type":"SCALAR"},{"bufferView":3,"componentType":5126,"count":24,"max":[0.15000000596046448,2.799999952316284,3.5],"min":[-0.15000000596046448,-2.799999952316284,-3.5],"type":"VEC3"},{"bufferView":4,"componentType":5126,"count":24,"type":"VEC3"},{"bufferView":5,"componentType":5126,"count":24,"max":[0.15000000596046448,2.799999952316284,3.5],"min":[-0.15000000596046448,-2.799999952316284,-3.5],"type":"VEC3"},{"bufferView":6,"componentType":5126,"count":24,"type":"VEC3"},{"bufferView":7,"componentType":5126,"count":24,"max":[0.20999999344348907,0.029999999329447746,0.029999999329447746],"min":[-0.20999999344348907,-0.029999999329447746,-0.029999999329447746],"type":"VEC3"},{"bufferView":8,"componentType":5126,"count":24,"type":"VEC3"},{"bufferView":9,"componentType":5126,"count":24,"type":"VEC2"},{"bufferView":10,"componentType":5126,"count":24,"max":[0.20999999344348907,0.029999999329447746,0.029999999329447746],"min":[-0.20999999344348907,-0.029999999329447746,-0.029999999329447746],"type":"VEC3"},{"bufferView":11,"componentType":5126,"count":24,"type":"VEC3"},{"bufferView":12,"componentType":5126,"count":24,"type":"VEC2"},{"bufferView":13,"componentType":5126,"count":24,"max":[0.20999999344348907,0.029999999329447746,0.029999999329447746],"min":[-0.20999999344348907,-0.029999999329447746,-0.029999999329447746],"type":"VEC3"},{"bufferView":14,"componentType":5126,"count":24,"type":"VEC3"},{"bufferView":15,"componentType":5126,"count":24,"type":"VEC2"},{"bufferView":16,"componentType":5126,"count":24,"max":[0.20999999344348907,0.029999999329447746,0.029999999329447746],"min":[-0.20999999344348907,-0.029999999329447746,-0.029999999329447746],"type":"VEC3"},{"bufferView":17,"componentType":5126,"count":24,"type":"VEC3"},{"bufferView":18,"componentType":5126,"count":24,"type":"VEC2"},{"bufferView":19,"componentType":5126,"count":52,"max":[0.03804226219654083,0.03999999910593033,0.03999999910593033],"min":[-0.03804226219654083,-0.03999999910593033,-0.03999999910593033],"type":"VEC3"},{"bufferView":20,"componentType":5126,"count":52,"type":"VEC3"},{"bufferView":21,"componentType":5123,"count":300,"type":"SCALAR"},{"bufferView":22,"componentType":5126,"count":540,"max":[3.313981771469116,4.711940288543701,3.5011940002441406],"min":[3.27211332321167,4.548059463500977,-3.5011937618255615],"type":"VEC3"},{"bufferView":23,"componentType":5126,"count":540,"type":"VEC3"},{"bufferView":24,"componentType":5126,"count":540,"type":"VEC2"},{"bufferView":25,"componentType":5123,"count":2832,"type":"SCALAR"},{"bufferView":26,"componentType":5126,"count":56,"max":[0.04500000178813934,3.5,0.04500000178813934],"min":[-0.04500000178813934,-3.5,-0.04500000178813934],"type":"VEC3"},{"bufferView":27,"componentType":5126,"count":56,"type":"VEC3"},{"bufferView":28,"componentType":5126,"count":56,"type":"VEC2"},{"bufferView":29,"componentType":5123,"count":132,"type":"SCALAR"},{"bufferView":30,"componentType":5126,"count":30,"max":[0.8248939514160156,1.067144751548767,1.0099296569824219],"min":[-0.831371545791626,-1.0077457427978516,-1.020571231842041],"type":"VEC3"},{"bufferView":31,"componentType":5126,"count":30,"type":"VEC3"},{"bufferView":32,"componentType":5126,"count":30,"type":"VEC2"},{"bufferView":33,"componentType":5123,"count":60,"type":"SCALAR"},{"bufferView":34,"componentType":5126,"count":25,"max":[0.8860312700271606,0.9940340518951416,0.9078077077865601],"min":[-0.8883899450302124,-1.0183093547821045,-0.8396459817886353],"type":"VEC3"},{"bufferView":35,"componentType":5126,"count":25,"type":"VEC3"},{"bufferView":36,"componentType":5126,"count":25,"type":"VEC2"},{"bufferView":37,"componentType":5123,"count":60,"type":"SCALAR"},{"bufferView":38,"componentType":5126,"count":30,"max":[1.0489137172698975,1.0091984272003174,1.0428956747055054],"min":[-0.832598865032196,-1.0081672668457031,-0.9314804077148438],"type":"VEC3"},{"bufferView":39,"componentType":5126,"count":30,"type":"VEC3"},{"bufferView":40,"componentType":5126,"count":30,"type":"VEC2"},{"bufferView":41,"componentType":5123,"count":60,"type":"SCALAR"},{"bufferView":42,"componentType":5126,"count":29,"max":[0.8820103406906128,0.8468225002288818,0.8475699424743652],"min":[-0.9007403254508972,-1.1291612386703491,-0.9796520471572876],"type":"VEC3"},{"bufferView":43,"componentType":5126,"count":29,"type":"VEC3"},{"bufferView":44,"componentType":5126,"count":29,"type":"VEC2"},{"bufferView":45,"componentType":5123,"count":60,"type":"SCALAR"},{"bufferView":46,"componentType":5126,"count":31,"max":[0.72444087266922,0.9442678689956665,1.0246825218200684],"min":[-1.1114346981048584,-0.985040009021759,-0.9929744005203247],"type":"VEC3"},{"bufferView":47,"componentType":5126,"count":31,"type":"VEC3"},{"bufferView":48,"componentType":5126,"count":31,"type":"VEC2"},{"bufferView":49,"componentType":5123,"count":60,"type":"SCALAR"},{"bufferView":50,"componentType":5126,"count":29,"max":[1.0404447317123413,1.2401529550552368,1.0406737327575684],"min":[-0.9949578642845154,-0.9479192495346069,-0.710284411907196],"type":"VEC3"},{"bufferView":51,"componentType":5126,"count":29,"type":"VEC3"},{"bufferView":52,"componentType":5126,"count":29,"type":"VEC2"},{"bufferView":53,"componentType":5123,"count":60,"type":"SCALAR"},{"bufferView":54,"componentType":5126,"count":31,"max":[0.8580979108810425,1.2050085067749023,0.9893618822097778],"min":[-0.7651993036270142,-0.9669046998023987,-0.8161940574645996],"type":"VEC3"},{"bufferView":55,"componentType":5126,"count":31,"type":"VEC3"},{"bufferView":56,"componentType":5126,"count":31,"type":"VEC2"},{"bufferView":57,"componentType":5123,"count":60,"type":"SCALAR"},{"bufferView":58,"componentType":5126,"count":32,"max":[0.9026307463645935,1.0277209281921387,0.8393658995628357],"min":[-0.8050757050514221,-0.759352445602417,-0.9778845310211182],"type":"VEC3"},{"bufferView":59,"componentType":5126,"count":32,"type":"VEC3"},{"bufferView":60,"componentType":5126,"count":32,"type":"VEC2"},{"bufferView":61,"componentType":5123,"count":60,"type":"SCALAR"},{"bufferView":62,"componentType":5126,"count":31,"max":[1.0918700695037842,1.0996088981628418,0.9326132535934448],"min":[-0.9447489380836487,-1.1299965381622314,-0.8530018925666809],"type":"VEC3"},{"bufferView":63,"componentType":5126,"count":31,"type":"VEC3"},{"bufferView":64,"componentType":5126,"count":31,"type":"VEC2"},{"bufferView":65,"componentType":5123,"count":60,"type":"SCALAR"},{"bufferView":66,"componentType":5126,"count":29,"max":[0.8263290524482727,1.1914163827896118,1.0195051431655884],"min":[-0.8017929196357727,-0.9710590243339539,-0.9227206707000732],"type":"VEC3"},{"bufferView":67,"componentType":5126,"count":29,"type":"VEC3"},{"bufferView":68,"componentType":5126,"count":29,"type":"VEC2"},{"bufferView":69,"componentType":5123,"count":60,"type":"SCALAR"},{"bufferView":70,"componentType":5126,"count":32,"max":[0.9498468041419983,1.0061311721801758,0.8736289143562317],"min":[-0.8132672309875488,-1.0078024864196777,-0.9451262354850769],"type":"VEC3"},{"bufferView":71,"componentType":5126,"count":32,"type":"VEC3"},{"bufferView":72,"componentType":5126,"count":32,"type":"VEC2"},{"bufferView":73,"componentType":5123,"count":60,"type":"SCALAR"},{"bufferView":74,"componentType":5126,"count":30,"max":[0.8849649429321289,0.889531135559082,0.9866491556167603],"min":[-1.0507652759552002,-0.840775728225708,-0.9254859089851379],"type":"VEC3"},{"bufferView":75,"componentType":5126,"count":30,"type":"VEC3"},{"bufferView":76,"componentType":5126,"count":30,"type":"VEC2"},{"bufferView":77,"componentType":5123,"count":60,"type":"SCALAR"},{"bufferView":78,"componentType":5126,"count":16,"max":[0.019999999552965164,0.03500000014901161,0.019999999552965164],"min":[-0.019999999552965164,-0.03500000014901161,-0.019999999552965164],"type":"VEC3"},{"bufferView":79,"componentType":5126,"count":16,"type":"VEC3"},{"bufferView":80,"componentType":5123,"count":84,"type":"SCALAR"},{"bufferView":81,"componentType":5126,"count":10,"max":[0.00570633914321661,0.14000000059604645,0.004854102153331041],"min":[-0.00570633914321661,-0.14000000059604645,-0.006000000052154064],"type":"VEC3"},{"bufferView":82,"componentType":5126,"count":10,"type":"VEC3"},{"bufferView":83,"componentType":5123,"count":48,"type":"SCALAR"},{"bufferView":84,"componentType":5126,"count":1029,"max":[3.5,5.599999904632568,3.5],"min":[-3.5,0,-3.5],"type":"VEC3"},{"bufferView":85,"componentType":5126,"count":1029,"type":"VEC3"},{"bufferView":86,"componentType":5126,"count":1029,"type":"VEC2"},{"bufferView":87,"componentType":5123,"count":5520,"type":"SCALAR"},{"bufferView":88,"componentType":5126,"count":441,"max":[3.5,0.047992609441280365,3.5],"min":[-3.5,0,-3.5],"type":"VEC3"},{"bufferView":89,"componentType":5126,"count":441,"type":"VEC3"},{"bufferView":90,"componentType":5126,"count":441,"type":"VEC2"},{"bufferView":91,"componentType":5123,"count":2400,"type":"SCALAR"},{"bufferView":92,"componentType":5126,"count":96,"max":[3.490000009536743,0.18000000715255737,0.18000000715255737],"min":[-3.490000009536743,-0.18000000715255737,-0.18000000715255737],"type":"VEC3"},{"bufferView":93,"componentType":5126,"count":96,"type":"VEC3"},{"bufferView":94,"componentType":5126,"count":96,"type":"VEC2"},{"bufferView":95,"componentType":5123,"count":132,"type":"SCALAR"},{"bufferView":96,"componentType":5126,"count":96,"max":[0.15000000596046448,0.02500000037252903,0.7875000238418579],"min":[-0.15000000596046448,-0.02500000037252903,-0.7875000238418579],"type":"VEC3"},{"bufferView":97,"componentType":5126,"count":96,"type":"VEC3"},{"bufferView":98,"componentType":5126,"count":96,"type":"VEC2"},{"bufferView":99,"componentType":5126,"count":96,"max":[0.15000000596046448,0.02500000037252903,0.7875000238418579],"min":[-0.15000000596046448,-0.02500000037252903,-0.7875000238418579],"type":"VEC3"},{"bufferView":100,"componentType":5126,"count":96,"type":"VEC3"},{"bufferView":101,"componentType":5126,"count":96,"type":"VEC2"},{"bufferView":102,"componentType":5126,"count":96,"max":[0.17000000178813934,2.4000000953674316,0.17000000178813934],"min":[-0.17000000178813934,-2.4000000953674316,-0.17000000178813934],"type":"VEC3"},{"bufferView":103,"componentType":5126,"count":96,"type":"VEC3"},{"bufferView":104,"componentType":5126,"count":96,"type":"VEC2"},{"bufferView":105,"componentType":5126,"count":96,"max":[0.17000000178813934,2.4000000953674316,0.17000000178813934],"min":[-0.17000000178813934,-2.4000000953674316,-0.17000000178813934],"type":"VEC3"},{"bufferView":106,"componentType":5126,"count":96,"type":"VEC3"},{"bufferView":107,"componentType":5126,"count":96,"type":"VEC2"},{"bufferView":108,"componentType":5126,"count":96,"max":[3.490000009536743,0.18000000715255737,0.18000000715255737],"min":[-3.490000009536743,-0.18000000715255737,-0.18000000715255737],"type":"VEC3"},{"bufferView":109,"componentType":5126,"count":96,"type":"VEC3"},{"bufferView":110,"componentType":5126,"count":96,"type":"VEC2"},{"bufferView":111,"componentType":5126,"count":96,"max":[0.15000000596046448,0.02500000037252903,0.7875000238418579],"min":[-0.15000000596046448,-0.02500000037252903,-0.7875000238418579],"type":"VEC3"},{"bufferView":112,"componentType":5126,"count":96,"type":"VEC3"},{"bufferView":113,"componentType":5126,"count":96,"type":"VEC2"},{"bufferView":114,"componentType":5126,"count":96,"max":[0.15000000596046448,0.02500000037252903,0.7875000238418579],"min":[-0.15000000596046448,-0.02500000037252903,-0.7875000238418579],"type":"VEC3"},{"bufferView":115,"componentType":5126,"count":96,"type":"VEC3"},{"bufferView":116,"componentType":5126,"count":96,"type":"VEC2"},{"bufferView":117,"componentType":5126,"count":96,"max":[0.17000000178813934,2.4000000953674316,0.17000000178813934],"min":[-0.17000000178813934,-2.4000000953674316,-0.17000000178813934],"type":"VEC3"},{"bufferView":118,"componentType":5126,"count":96,"type":"VEC3"},{"bufferView":119,"componentType":5126,"count":96,"type":"VEC2"},{"bufferView":120,"componentType":5126,"count":96,"max":[0.17000000178813934,2.4000000953674316,0.17000000178813934],"min":[-0.17000000178813934,-2.4000000953674316,-0.17000000178813934],"type":"VEC3"},{"bufferView":121,"componentType":5126,"count":96,"type":"VEC3"},{"bufferView":122,"componentType":5126,"count":96,"type":"VEC2"},{"bufferView":123,"componentType":5126,"count":96,"max":[3.490000009536743,0.18000000715255737,0.18000000715255737],"min":[-3.490000009536743,-0.18000000715255737,-0.18000000715255737],"type":"VEC3"},{"bufferView":124,"componentType":5126,"count":96,"type":"VEC3"},{"bufferView":125,"componentType":5126,"count":96,"type":"VEC2"},{"bufferView":126,"componentType":5126,"count":96,"max":[0.15000000596046448,0.02500000037252903,0.7875000238418579],"min":[-0.15000000596046448,-0.02500000037252903,-0.7875000238418579],"type":"VEC3"},{"bufferView":127,"componentType":5126,"count":96,"type":"VEC3"},{"bufferView":128,"componentType":5126,"count":96,"type":"VEC2"},{"bufferView":129,"componentType":5126,"count":96,"max":[0.15000000596046448,0.02500000037252903,0.7875000238418579],"min":[-0.15000000596046448,-0.02500000037252903,-0.7875000238418579],"type":"VEC3"},{"bufferView":130,"componentType":5126,"count":96,"type":"VEC3"},{"bufferView":131,"componentType":5126,"count":96,"type":"VEC2"},{"bufferView":132,"componentType":5126,"count":96,"max":[0.17000000178813934,2.4000000953674316,0.17000000178813934],"min":[-0.17000000178813934,-2.4000000953674316,-0.17000000178813934],"type":"VEC3"},{"bufferView":133,"componentType":5126,"count":96,"type":"VEC3"},{"bufferView":134,"componentType":5126,"count":96,"type":"VEC2"},{"bufferView":135,"componentType":5126,"count":96,"max":[0.17000000178813934,2.4000000953674316,0.17000000178813934],"min":[-0.17000000178813934,-2.4000000953674316,-0.17000000178813934],"type":"VEC3"},{"bufferView":136,"componentType":5126,"count":96,"type":"VEC3"},{"bufferView":137,"componentType":5126,"count":96,"type":"VEC2"},{"bufferView":138,"componentType":5126,"count":96,"max":[3.490000009536743,0.18000000715255737,0.18000000715255737],"min":[-3.490000009536743,-0.18000000715255737,-0.18000000715255737],"type":"VEC3"},{"bufferView":139,"componentType":5126,"count":96,"type":"VEC3"},{"bufferView":140,"componentType":5126,"count":96,"type":"VEC2"},{"bufferView":141,"componentType":5126,"count":96,"max":[0.15000000596046448,0.02500000037252903,0.7875000238418579],"min":[-0.15000000596046448,-0.02500000037252903,-0.7875000238418579],"type":"VEC3"},{"bufferView":142,"componentType":5126,"count":96,"type":"VEC3"},{"bufferView":143,"componentType":5126,"count":96,"type":"VEC2"},{"bufferView":144,"componentType":5126,"count":96,"max":[0.15000000596046448,0.02500000037252903,0.7875000238418579],"min":[-0.15000000596046448,-0.02500000037252903,-0.7875000238418579],"type":"VEC3"},{"bufferView":145,"componentType":5126,"count":96,"type":"VEC3"},{"bufferView":146,"componentType":5126,"count":96,"type":"VEC2"},{"bufferView":147,"componentType":5126,"count":96,"max":[0.17000000178813934,2.4000000953674316,0.17000000178813934],"min":[-0.17000000178813934,-2.4000000953674316,-0.17000000178813934],"type":"VEC3"},{"bufferView":148,"componentType":5126,"count":96,"type":"VEC3"},{"bufferView":149,"componentType":5126,"count":96,"type":"VEC2"},{"bufferView":150,"componentType":5126,"count":96,"max":[0.17000000178813934,2.4000000953674316,0.17000000178813934],"min":[-0.17000000178813934,-2.4000000953674316,-0.17000000178813934],"type":"VEC3"},{"bufferView":151,"componentType":5126,"count":96,"type":"VEC3"},{"bufferView":152,"componentType":5126,"count":96,"type":"VEC2"}],"bufferViews":[{"buffer":0,"byteLength":288,"byteOffset":0,"target":34962},{"buffer":0,"byteLength":288,"byteOffset":288,"target":34962},{"buffer":0,"byteLength":72,"byteOffset":576,"target":34963},{"buffer":0,"byteLength":288,"byteOffset":648,"target":34962},{"buffer":0,"byteLength":288,"byteOffset":936,"target":34962},{"buffer":0,"byteLength":288,"byteOffset":1224,"target":34962},{"buffer":0,"byteLength":288,"byteOffset":1512,"target":34962},{"buffer":0,"byteLength":288,"byteOffset":1800,"target":34962},{"buffer":0,"byteLength":288,"byteOffset":2088,"target":34962},{"buffer":0,"byteLength":192,"byteOffset":2376,"target":34962},{"buffer":0,"byteLength":288,"byteOffset":2568,"target":34962},{"buffer":0,"byteLength":288,"byteOffset":2856,"target":34962},{"buffer":0,"byteLength":192,"byteOffset":3144,"target":34962},{"buffer":0,"byteLength":288,"byteOffset":3336,"target":34962},{"buffer":0,"byteLength":288,"byteOffset":3624,"target":34962},{"buffer":0,"byteLength":192,"byteOffset":3912,"target":34962},{"buffer":0,"byteLength":288,"byteOffset":4104,"target":34962},{"buffer":0,"byteLength":288,"byteOffset":4392,"target":34962},{"buffer":0,"byteLength":192,"byteOffset":4680,"target":34962},{"buffer":0,"byteLength":624,"byteOffset":4872,"target":34962},{"buffer":0,"byteLength":624,"byteOffset":5496,"target":34962},{"buffer":0,"byteLength":600,"byteOffset":6120,"target":34963},{"buffer":0,"byteLength":6480,"byteOffset":6720,"target":34962},{"buffer":0,"byteLength":6480,"byteOffset":13200,"target":34962},{"buffer":0,"byteLength":4320,"byteOffset":19680,"target":34962},{"buffer":0,"byteLength":5664,"byteOffset":24000,"target":34963},{"buffer":0,"byteLength":672,"byteOffset":29664,"target":34962},{"buffer":0,"byteLength":672,"byteOffset":30336,"target":34962},{"buffer":0,"byteLength":448,"byteOffset":31008,"target":34962},{"buffer":0,"byteLength":264,"byteOffset":31456,"target":34963},{"buffer":0,"byteLength":360,"byteOffset":31720,"target":34962},{"buffer":0,"byteLength":360,"byteOffset":32080,"target":34962},{"buffer":0,"byteLength":240,"byteOffset":32440,"target":34962},{"buffer":0,"byteLength":120,"byteOffset":32680,"target":34963},{"buffer":0,"byteLength":300,"byteOffset":32800,"target":34962},{"buffer":0,"byteLength":300,"byteOffset":33100,"target":34962},{"buffer":0,"byteLength":200,"byteOffset":33400,"target":34962},{"buffer":0,"byteLength":120,"byteOffset":33600,"target":34963},{"buffer":0,"byteLength":360,"byteOffset":33720,"target":34962},{"buffer":0,"byteLength":360,"byteOffset":34080,"target":34962},{"buffer":0,"byteLength":240,"byteOffset":34440,"target":34962},{"buffer":0,"byteLength":120,"byteOffset":34680,"target":34963},{"buffer":0,"byteLength":348,"byteOffset":34800,"target":34962},{"buffer":0,"byteLength":348,"byteOffset":35148,"target":34962},{"buffer":0,"byteLength":232,"byteOffset":35496,"target":34962},{"buffer":0,"byteLength":120,"byteOffset":35728,"target":34963},{"buffer":0,"byteLength":372,"byteOffset":35848,"target":34962},{"buffer":0,"byteLength":372,"byteOffset":36220,"target":34962},{"buffer":0,"byteLength":248,"byteOffset":36592,"target":34962},{"buffer":0,"byteLength":120,"byteOffset":36840,"target":34963},{"buffer":0,"byteLength":348,"byteOffset":36960,"target":34962},{"buffer":0,"byteLength":348,"byteOffset":37308,"target":34962},{"buffer":0,"byteLength":232,"byteOffset":37656,"target":34962},{"buffer":0,"byteLength":120,"byteOffset":37888,"target":34963},{"buffer":0,"byteLength":372,"byteOffset":38008,"target":34962},{"buffer":0,"byteLength":372,"byteOffset":38380,"target":34962},{"buffer":0,"byteLength":248,"byteOffset":38752,"target":34962},{"buffer":0,"byteLength":120,"byteOffset":39000,"target":34963},{"buffer":0,"byteLength":384,"byteOffset":39120,"target":34962},{"buffer":0,"byteLength":384,"byteOffset":39504,"target":34962},{"buffer":0,"byteLength":256,"byteOffset":39888,"target":34962},{"buffer":0,"byteLength":120,"byteOffset":40144,"target":34963},{"buffer":0,"byteLength":372,"byteOffset":40264,"target":34962},{"buffer":0,"byteLength":372,"byteOffset":40636,"target":34962},{"buffer":0,"byteLength":248,"byteOffset":41008,"target":34962},{"buffer":0,"byteLength":120,"byteOffset":41256,"target":34963},{"buffer":0,"byteLength":348,"byteOffset":41376,"target":34962},{"buffer":0,"byteLength":348,"byteOffset":41724,"target":34962},{"buffer":0,"byteLength":232,"byteOffset":42072,"target":34962},{"buffer":0,"byteLength":120,"byteOffset":42304,"target":34963},{"buffer":0,"byteLength":384,"byteOffset":42424,"target":34962},{"buffer":0,"byteLength":384,"byteOffset":42808,"target":34962},{"buffer":0,"byteLength":256,"byteOffset":43192,"target":34962},{"buffer":0,"byteLength":120,"byteOffset":43448,"target":34963},{"buffer":0,"byteLength":360,"byteOffset":43568,"target":34962},{"buffer":0,"byteLength":360,"byteOffset":43928,"target":34962},{"buffer":0,"byteLength":240,"byteOffset":44288,"target":34962},{"buffer":0,"byteLength":120,"byteOffset":44528,"target":34963},{"buffer":0,"byteLength":192,"byteOffset":44648,"target":34962},{"buffer":0,"byteLength":192,"byteOffset":44840,"target":34962},{"buffer":0,"byteLength":168,"byteOffset":45032,"target":34963},{"buffer":0,"byteLength":120,"byteOffset":45200,"target":34962},{"buffer":0,"byteLength":120,"byteOffset":45320,"target":34962},{"buffer":0,"byteLength":96,"byteOffset":45440,"target":34963},{"buffer":0,"byteLength":12348,"byteOffset":45536,"target":34962},{"buffer":0,"byteLength":12348,"byteOffset":57884,"target":34962},{"buffer":0,"byteLength":8232,"byteOffset":70232,"target":34962},{"buffer":0,"byteLength":11040,"byteOffset":78464,"target":34963},{"buffer":0,"byteLength":5292,"byteOffset":89504,"target":34962},{"buffer":0,"byteLength":5292,"byteOffset":94796,"target":34962},{"buffer":0,"byteLength":3528,"byteOffset":100088,"target":34962},{"buffer":0,"byteLength":4800,"byteOffset":103616,"target":34963},{"buffer":0,"byteLength":1152,"byteOffset":108416,"target":34962},{"buffer":0,"byteLength":1152,"byteOffset":109568,"target":34962},{"buffer":0,"byteLength":768,"byteOffset":110720,"target":34962},{"buffer":0,"byteLength":264,"byteOffset":111488,"target":34963},{"buffer":0,"byteLength":1152,"byteOffset":111752,"target":34962},{"buffer":0,"byteLength":1152,"byteOffset":112904,"target":34962},{"buffer":0,"byteLength":768,"byteOffset":114056,"target":34962},{"buffer":0,"byteLength":1152,"byteOffset":114824,"target":34962},{"buffer":0,"byteLength":1152,"byteOffset":115976,"target":34962},{"buffer":0,"byteLength":768,"byteOffset":117128,"target":34962},{"buffer":0,"byteLength":1152,"byteOffset":117896,"target":34962},{"buffer":0,"byteLength":1152,"byteOffset":119048,"target":34962},{"buffer":0,"byteLength":768,"byteOffset":120200,"target":34962},{"buffer":0,"byteLength":1152,"byteOffset":120968,"target":34962},{"buffer":0,"byteLength":1152,"byteOffset":122120,"target":34962},{"buffer":0,"byteLength":768,"byteOffset":123272,"target":34962},{"buffer":0,"byteLength":1152,"byteOffset":124040,"target":34962},{"buffer":0,"byteLength":1152,"byteOffset":125192,"target":34962},{"buffer":0,"byteLength":768,"byteOffset":126344,"target":34962},{"buffer":0,"byteLength":1152,"byteOffset":127112,"target":34962},{"buffer":0,"byteLength":1152,"byteOffset":128264,"target":34962},{"buffer":0,"byteLength":768,"byteOffset":129416,"target":34962},{"buffer":0,"byteLength":1152,"byteOffset":130184,"target":34962},{"buffer":0,"byteLength":1152,"byteOffset":131336,"target":34962},{"buffer":0,"byteLength":768,"byteOffset":132488,"target":34962},{"buffer":0,"byteLength":1152,"byteOffset":133256,"target":34962},{"buffer":0,"byteLength":1152,"byteOffset":134408,"target":34962},{"buffer":0,"byteLength":768,"byteOffset":135560,"target":34962},{"buffer":0,"byteLength":1152,"byteOffset":136328,"target":34962},{"buffer":0,"byteLength":1152,"byteOffset":137480,"target":34962},{"buffer":0,"byteLength":768,"byteOffset":138632,"target":34962},{"buffer":0,"byteLength":1152,"byteOffset":139400,"target":34962},{"buffer":0,"byteLength":1152,"byteOffset":140552,"target":34962},{"buffer":0,"byteLength":768,"byteOffset":141704,"target":34962},{"buffer":0,"byteLength":1152,"byteOffset":142472,"target":34962},{"buffer":0,"byteLength":1152,"byteOffset":143624,"target":34962},{"buffer":0,"byteLength":768,"byteOffset":144776,"target":34962},{"buffer":0,"byteLength":1152,"byteOffset":145544,"target":34962},{"buffer":0,"byteLength":1152,"byteOffset":146696,"target":34962},{"buffer":0,"byteLength":768,"byteOffset":147848,"target":34962},{"buffer":0,"byteLength":1152,"byteOffset":148616,"target":34962},{"buffer":0,"byteLength":1152,"byteOffset":149768,"target":34962},{"buffer":0,"byteLength":768,"byteOffset":150920,"target":34962},{"buffer":0,"byteLength":1152,"byteOffset":151688,"target":34962},{"buffer":0,"byteLength":1152,"byteOffset":152840,"target":34962},{"buffer":0,"byteLength":768,"byteOffset":153992,"target":34962},{"buffer":0,"byteLength":1152,"byteOffset":154760,"target":34962},{"buffer":0,"byteLength":1152,"byteOffset":155912,"target":34962},{"buffer":0,"byteLength":768,"byteOffset":157064,"target":34962},{"buffer":0,"byteLength":1152,"byteOffset":157832,"target":34962},{"buffer":0,"byteLength":1152,"byteOffset":158984,"target":34962},{"buffer":0,"byteLength":768,"byteOffset":160136,"target":34962},{"buffer":0,"byteLength":1152,"byteOffset":160904,"target":34962},{"buffer":0,"byteLength":1152,"byteOffset":162056,"target":34962},{"buffer":0,"byteLength":768,"byteOffset":163208,"target":34962},{"buffer":0,"byteLength":1152,"byteOffset":163976,"target":34962},{"buffer":0,"byteLength":1152,"byteOffset":165128,"target":34962},{"buffer":0,"byteLength":768,"byteOffset":166280,"target":34962},{"buffer":0,"byteLength":1152,"byteOffset":167048,"target":34962},{"buffer":0,"byteLength":1152,"byteOffset":168200,"target":34962},{"buffer":0,"byteLength":768,"byteOffset":169352,"target":34962}],"samplers":[{"magFilter":9729,"minFilter":9987}],"buffers":[{"byteLength":170120,"uri":"piece_straight.bin"}]}