{
	"asset":{
		"generator":"Khronos glTF Blender I/O v5.2.39",
		"version":"2.0"
	},
	"scene":0,
	"scenes":[
		{
			"name":"Scene",
			"nodes":[
				0,
				1,
				2,
				3,
				4,
				5,
				6,
				7,
				8,
				9,
				10,
				11,
				12,
				13,
				14,
				15,
				16,
				17,
				18,
				19,
				20,
				21,
				22,
				23,
				24,
				25,
				26,
				27,
				28,
				29,
				30,
				31,
				32,
				33,
				34,
				35,
				36,
				37,
				38,
				39,
				40,
				41,
				42,
				43,
				44,
				45,
				46,
				47,
				48,
				49,
				50,
				51,
				52,
				53,
				54,
				55,
				56
			]
		}
	],
	"nodes":[
		{
			"mesh":0,
			"name":"COL_gap_back-convcolonly"
		},
		{
			"mesh":1,
			"name":"COL_gap_floor-convcolonly"
		},
		{
			"mesh":2,
			"name":"COL_gap_roof-convcolonly"
		},
		{
			"mesh":3,
			"name":"COL_gap_side_N-convcolonly"
		},
		{
			"mesh":4,
			"name":"COL_gap_side_S-convcolonly"
		},
		{
			"mesh":5,
			"name":"COL_gap_wall_N-convcolonly"
		},
		{
			"mesh":6,
			"name":"COL_gap_wall_S-convcolonly"
		},
		{
			"mesh":7,
			"name":"COL_gap_wall_top-convcolonly"
		},
		{
			"mesh":8,
			"name":"COL_straight_floor-convcolonly",
			"translation":[
				0,
				-0.25,
				0
			]
		},
		{
			"mesh":9,
			"name":"COL_straight_wall_E-convcolonly",
			"translation":[
				3.3499999046325684,
				2.799999952316284,
				0
			]
		},
		{
			"mesh":10,
			"name":"PRP_straight_bracket_0",
			"translation":[
				3.2899999618530273,
				1.25,
				2.625
			]
		},
		{
			"mesh":11,
			"name":"PRP_straight_bracket_1",
			"translation":[
				3.2899999618530273,
				1.25,
				0.875
			]
		},
		{
			"mesh":12,
			"name":"PRP_straight_bracket_2",
			"translation":[
				3.2899999618530273,
				1.25,
				-0.875
			]
		},
		{
			"mesh":13,
			"name":"PRP_straight_bracket_3",
			"translation":[
				3.2899999618530273,
				1.25,
				-2.625
			]
		},
		{
			"mesh":14,
			"name":"PRP_straight_bulb",
			"translation":[
				3.1500000953674316,
				4.449999809265137,
				-1.2000000476837158
			]
		},
		{
			"mesh":15,
			"name":"PRP_straight_cable"
		},
		{
			"mesh":16,
			"name":"PRP_straight_pipe",
			"rotation":[
				0.70710688829422,
				0,
				0,
				0.7071066498756409
			],
			"translation":[
				3.0999999046325684,
				1.25,
				0
			]
		},
		{
			"mesh":17,
			"name":"PRP_straight_rock_0",
			"rotation":[
				0.14988863468170166,
				0.14988861978054047,
				-0.22389191389083862,
				0.9512830376625061
			],
			"scale":[
				0.06162629649043083,
				0.047019992023706436,
				0.0686885416507721
			],
			"translation":[
				3.087435007095337,
				0.029131487011909485,
				-1.2191593647003174
			]
		},
		{
			"mesh":18,
			"name":"PRP_straight_rock_1",
			"rotation":[
				-0.07585982978343964,
				-0.07585982978343964,
				0.0657556876540184,
				0.992051899433136
			],
			"scale":[
				0.0796566754579544,
				0.044949039816856384,
				0.07150546461343765
			],
			"translation":[
				-1.0457110404968262,
				0.028211690485477448,
				-0.4274151027202606
			]
		},
		{
			"mesh":19,
			"name":"PRP_straight_rock_2",
			"rotation":[
				-0.3405091166496277,
				-0.3405091166496277,
				0.1841406673192978,
				0.8568543195724487
			],
			"scale":[
				0.1072997897863388,
				0.08418262749910355,
				0.09793242812156677
			],
			"translation":[
				1.9486926794052124,
				0.04111472889780998,
				-1.2291632890701294
			]
		},
		{
			"mesh":20,
			"name":"PRP_straight_rock_3",
			"rotation":[
				0.3885674774646759,
				0.3885674774646759,
				0.19061124324798584,
				0.8134483695030212
			],
			"scale":[
				0.08634406328201294,
				0.07517043501138687,
				0.11287590861320496
			],
			"translation":[
				-2.2717478275299072,
				0.03333495557308197,
				-1.8457553386688232
			]
		},
		{
			"mesh":21,
			"name":"PRP_straight_rock_4",
			"rotation":[
				0.681016743183136,
				0.681016743183136,
				0.08357241004705429,
				0.25582829117774963
			],
			"scale":[
				0.06676128506660461,
				0.05486683547496796,
				0.10046932846307755
			],
			"translation":[
				0.9932914972305298,
				0.028509870171546936,
				2.546194314956665
			]
		},
		{
			"mesh":22,
			"name":"PRP_straight_rock_5",
			"rotation":[
				0.5646016001701355,
				0.5646016001701355,
				0.1699438840150833,
				0.5775545239448547
			],
			"scale":[
				0.09760171175003052,
				0.05923084542155266,
				0.11035638302564621
			],
			"translation":[
				-2.7219765186309814,
				0.037529028952121735,
				-3.018606662750244
			]
		},
		{
			"mesh":23,
			"name":"PRP_straight_rock_6",
			"rotation":[
				-0.1798696517944336,
				-0.1798696368932724,
				-0.5329685211181641,
				0.8069934248924255
			],
			"scale":[
				0.049994513392448425,
				0.04419054090976715,
				0.05384643375873566
			],
			"translation":[
				-2.0637946128845215,
				0.017948651686310768,
				-2.7751986980438232
			]
		},
		{
			"mesh":24,
			"name":"PRP_straight_rock_7",
			"rotation":[
				-0.6872405409812927,
				-0.687240481376648,
				0.07341418415307999,
				0.22363227605819702
			],
			"scale":[
				0.06709302216768265,
				0.05266101285815239,
				0.09103501588106155
			],
			"translation":[
				-2.0763800144195557,
				0.030749790370464325,
				-0.15044215321540833
			]
		},
		{
			"mesh":25,
			"name":"PRP_straight_rock_8",
			"rotation":[
				-0.45810794830322266,
				-0.45810794830322266,
				0.19159696996212006,
				0.7372686266899109
			],
			"scale":[
				0.09480011463165283,
				0.05422934517264366,
				0.06411536037921906
			],
			"translation":[
				-2.0185136795043945,
				0.026222888380289078,
				-0.39506807923316956
			]
		},
		{
			"mesh":26,
			"name":"PRP_straight_rock_9",
			"rotation":[
				-0.112831711769104,
				-0.112831711769104,
				0.09159708023071289,
				0.9829282760620117
			],
			"scale":[
				0.11219847947359085,
				0.08893600851297379,
				0.17151810228824615
			],
			"translation":[
				1.1291226148605347,
				0.047212909907102585,
				2.421619415283203
			]
		},
		{
			"mesh":27,
			"name":"PRP_straight_rock_10",
			"rotation":[
				0.15305829048156738,
				0.15305830538272858,
				-0.23182983696460724,
				0.9483677744865417
			],
			"scale":[
				0.12116951495409012,
				0.08340555429458618,
				0.11009179055690765
			],
			"translation":[
				-1.18751859664917,
				0.03284871578216553,
				0.43826037645339966
			]
		},
		{
			"mesh":28,
			"name":"PRP_straight_rock_11",
			"rotation":[
				-0.6655876040458679,
				-0.6655876636505127,
				0.10366654396057129,
				0.32130900025367737
			],
			"scale":[
				0.0481388121843338,
				0.03610794618725777,
				0.07352527976036072
			],
			"translation":[
				1.4526090621948242,
				0.020800556987524033,
				-2.5977516174316406
			]
		},
		{
			"mesh":29,
			"name":"PRP_straight_socket",
			"translation":[
				3.1500000953674316,
				4.519999980926514,
				-1.2000000476837158
			]
		},
		{
			"mesh":30,
			"name":"PRP_straight_wire",
			"translation":[
				3.1500000953674316,
				4.690000057220459,
				-1.2000000476837158
			]
		},
		{
			"mesh":31,
			"name":"SHL_straight"
		},
		{
			"name":"SLOT_Pocket_straight_0",
			"translation":[
				-3.4200000762939453,
				1.899999976158142,
				1.75
			]
		},
		{
			"name":"SLOT_Pocket_straight_1",
			"translation":[
				3.4200000762939453,
				1.899999976158142,
				1.75
			]
		},
		{
			"name":"SLOT_Pocket_straight_2",
			"translation":[
				-3.4200000762939453,
				1.899999976158142,
				-1.75
			]
		},
		{
			"name":"SLOT_Pocket_straight_3",
			"translation":[
				3.4200000762939453,
				1.899999976158142,
				-1.75
			]
		},
		{
			"mesh":32,
			"name":"TMB_gap_lintel",
			"rotation":[
				0.004753532353788614,
				0.0024706560652703047,
				0.004777410067617893,
				0.999974250793457
			],
			"translation":[
				-3.3452882766723633,
				2.3499999046325684,
				0.8826607465744019
			]
		},
		{
			"mesh":33,
			"name":"TMB_straight_0_cap",
			"rotation":[
				-0.004090369213372469,
				0.0032653987873345613,
				0.000768175523262471,
				0.9999859929084778
			],
			"translation":[
				0,
				4.832794189453125,
				2.625
			]
		},
		{
			"mesh":34,
			"name":"TMB_straight_0_lag_0",
			"rotation":[
				0.003431893652305007,
				0.00859688501805067,
				0.013114811852574348,
				0.9998711347579956
			],
			"translation":[
				-2.257188320159912,
				5.047837734222412,
				3.5
			]
		},
		{
			"mesh":35,
			"name":"TMB_straight_0_lag_1",
			"rotation":[
				0.014104426838457584,
				-0.035472188144922256,
				0.006816997192800045,
				0.9992479681968689
			],
			"translation":[
				-2.7024641036987305,
				5.0127949714660645,
				3.5
			]
		},
		{
			"mesh":36,
			"name":"TMB_straight_0_post_L",
			"rotation":[
				0.0022708706092089415,
				0.00109095498919487,
				0.006410954985767603,
				0.9999762773513794
			],
			"translation":[
				-3.3370466232299805,
				2.3499999046325684,
				2.6389660835266113
			]
		},
		{
			"mesh":37,
			"name":"TMB_straight_0_post_R",
			"rotation":[
				9.772311022970825e-05,
				-0.001989806769415736,
				0.006937718950212002,
				0.9999739527702332
			],
			"translation":[
				3.324627637863159,
				2.3499999046325684,
				2.6426799297332764
			]
		},
		{
			"mesh":38,
			"name":"TMB_straight_1_cap",
			"rotation":[
				0.001802649931050837,
				-0.0018572179833427072,
				0.000727427308447659,
				0.9999963641166687
			],
			"translation":[
				0,
				4.83823823928833,
				0.875
			]
		},
		{
			"mesh":39,
			"name":"TMB_straight_1_lag_0",
			"rotation":[
				-0.009789584204554558,
				0.027879975736141205,
				0.009884138591587543,
				0.9995144605636597
			],
			"translation":[
				0.5133711695671082,
				5.0316948890686035,
				0
			]
		},
		{
			"mesh":40,
			"name":"TMB_straight_1_lag_1",
			"rotation":[
				0.015147152356803417,
				-0.021305013447999954,
				-0.006562818307429552,
				0.9996368288993835
			],
			"translation":[
				-2.5088698863983154,
				5.0415120124816895,
				0
			]
		},
		{
			"mesh":41,
			"name":"TMB_straight_1_post_L",
			"rotation":[
				0.004753532353788614,
				0.0024706560652703047,
				0.004777410067617893,
				0.999974250793457
			],
			"translation":[
				-3.3452882766723633,
				2.3499999046325684,
				0.8826607465744019
			]
		},
		{
			"mesh":42,
			"name":"TMB_straight_1_post_R",
			"rotation":[
				0.000629445887170732,
				-0.013206597417593002,
				0.006567005068063736,
				0.9998910427093506
			],
			"translation":[
				3.3355565071105957,
				2.3499999046325684,
				0.880104124546051
			]
		},
		{
			"mesh":43,
			"name":"TMB_straight_2_cap",
			"rotation":[
				-0.0018643629737198353,
				0.0009473328827880323,
				-0.0019511909922584891,
				0.9999960064888
			],
			"translation":[
				0,
				4.86501932144165,
				-0.875
			]
		},
		{
			"mesh":44,
			"name":"TMB_straight_2_lag_0",
			"rotation":[
				-0.016115939244627953,
				0.019587691873311996,
				0.0072197881527245045,
				0.9996522665023804
			],
			"translation":[
				0.47937121987342834,
				5.014125823974609,
				-1.75
			]
		},
		{
			"mesh":45,
			"name":"TMB_straight_2_lag_1",
			"rotation":[
				0.019925031810998917,
				-0.02172400988638401,
				-0.009228694252669811,
				0.999522864818573
			],
			"translation":[
				-2.6100001335144043,
				5.048827648162842,
				-1.75
			]
		},
		{
			"mesh":46,
			"name":"TMB_straight_2_post_L",
			"rotation":[
				-0.0011878120712935925,
				-0.010435455478727818,
				-0.0038697142153978348,
				0.9999373555183411
			],
			"translation":[
				-3.310792922973633,
				2.3499999046325684,
				-0.8597226142883301
			]
		},
		{
			"mesh":47,
			"name":"TMB_straight_2_post_R",
			"rotation":[
				0.0025145153049379587,
				0.0021807393059134483,
				-0.003974059130996466,
				0.9999865889549255
			],
			"translation":[
				3.3295586109161377,
				2.3499999046325684,
				-0.8565682768821716
			]
		},
		{
			"mesh":48,
			"name":"TMB_straight_3_cap",
			"rotation":[
				0.003712047589942813,
				-0.0004925400135107338,
				0.004196033347398043,
				0.9999842047691345
			],
			"translation":[
				0,
				4.845637798309326,
				-2.625
			]
		},
		{
			"mesh":49,
			"name":"TMB_straight_3_lag_0",
			"rotation":[
				0.014501722529530525,
				-0.008372388780117035,
				0.006769689731299877,
				0.9998369216918945
			],
			"translation":[
				0.29663944244384766,
				5.059156894683838,
				-1.75
			]
		},
		{
			"mesh":50,
			"name":"TMB_straight_3_lag_1",
			"rotation":[
				-0.014217338524758816,
				-0.02693280577659607,
				0.009334681555628777,
				0.9994925856590271
			],
			"translation":[
				-0.8473730087280273,
				5.0674638748168945,
				-3.5
			]
		},
		{
			"mesh":51,
			"name":"TMB_straight_3_post_L",
			"rotation":[
				-0.007166861090809107,
				-0.009962243027985096,
				0.0005032106419093907,
				0.9999246597290039
			],
			"translation":[
				-3.3345682621002197,
				2.3499999046325684,
				-2.6317460536956787
			]
		},
		{
			"mesh":52,
			"name":"TMB_straight_3_post_R",
			"rotation":[
				0.003981210757046938,
				-0.007548937574028969,
				0.005590127781033516,
				0.9999479651451111
			],
			"translation":[
				3.3146839141845703,
				2.3499999046325684,
				-2.60735821723938
			]
		}
	],
	"materials":[
		{
			"doubleSided":true,
			"name":"MAT_RustyMetal_EXPORT",
			"normalTexture":{
				"index":0
			},
			"pbrMetallicRoughness":{
				"baseColorTexture":{
					"index":1
				},
				"metallicFactor":0,
				"metallicRoughnessTexture":{
					"index":2
				}
			}
		},
		{
			"doubleSided":true,
			"name":"MAT_Bulb"
		},
		{
			"doubleSided":true,
			"name":"MAT_Cable",
			"pbrMetallicRoughness":{
				"baseColorFactor":[
					0.019999999552965164,
					0.019999999552965164,
					0.019999999552965164,
					1
				],
				"metallicFactor":0,
				"roughnessFactor":0.550000011920929
			}
		},
		{
			"doubleSided":true,
			"name":"MAT_Rock_EXPORT",
			"normalTexture":{
				"index":3
			},
			"pbrMetallicRoughness":{
				"baseColorTexture":{
					"index":4
				},
				"metallicFactor":0,
				"metallicRoughnessTexture":{
					"index":5
				}
			}
		},
		{
			"doubleSided":true,
			"name":"MAT_RockWall_EXPORT",
			"normalTexture":{
				"index":6
			},
			"pbrMetallicRoughness":{
				"baseColorTexture":{
					"index":7
				},
				"metallicFactor":0,
				"metallicRoughnessTexture":{
					"index":8
				}
			}
		},
		{
			"doubleSided":true,
			"name":"MAT_Floor_EXPORT",
			"normalTexture":{
				"index":9
			},
			"pbrMetallicRoughness":{
				"baseColorTexture":{
					"index":10
				},
				"metallicFactor":0,
				"metallicRoughnessTexture":{
					"index":11
				}
			}
		},
		{
			"doubleSided":true,
			"name":"MAT_Timber_EXPORT",
			"normalTexture":{
				"index":12
			},
			"pbrMetallicRoughness":{
				"baseColorTexture":{
					"index":13
				},
				"metallicFactor":0,
				"metallicRoughnessTexture":{
					"index":14
				}
			}
		}
	],
	"meshes":[
		{
			"name":"COL_gap_back-convcolonly",
			"primitives":[
				{
					"attributes":{
						"POSITION":0,
						"NORMAL":1
					},
					"indices":2
				}
			]
		},
		{
			"name":"COL_gap_floor-convcolonly",
			"primitives":[
				{
					"attributes":{
						"POSITION":3,
						"NORMAL":4
					},
					"indices":5
				}
			]
		},
		{
			"name":"COL_gap_roof-convcolonly",
			"primitives":[
				{
					"attributes":{
						"POSITION":6,
						"NORMAL":7
					},
					"indices":5
				}
			]
		},
		{
			"name":"COL_gap_side_N-convcolonly",
			"primitives":[
				{
					"attributes":{
						"POSITION":8,
						"NORMAL":9
					},
					"indices":10
				}
			]
		},
		{
			"name":"COL_gap_side_S-convcolonly",
			"primitives":[
				{
					"attributes":{
						"POSITION":11,
						"NORMAL":12
					},
					"indices":13
				}
			]
		},
		{
			"name":"COL_gap_wall_N-convcolonly",
			"primitives":[
				{
					"attributes":{
						"POSITION":14,
						"NORMAL":15
					},
					"indices":2
				}
			]
		},
		{
			"name":"COL_gap_wall_S-convcolonly",
			"primitives":[
				{
					"attributes":{
						"POSITION":16,
						"NORMAL":17
					},
					"indices":2
				}
			]
		},
		{
			"name":"COL_gap_wall_top-convcolonly",
			"primitives":[
				{
					"attributes":{
						"POSITION":18,
						"NORMAL":19
					},
					"indices":2
				}
			]
		},
		{
			"name":"COL_straight_floor-convcolonly",
			"primitives":[
				{
					"attributes":{
						"POSITION":20,
						"NORMAL":21
					},
					"indices":22
				}
			]
		},
		{
			"name":"COL_straight_wall_E-convcolonly",
			"primitives":[
				{
					"attributes":{
						"POSITION":23,
						"NORMAL":24
					},
					"indices":22
				}
			]
		},
		{
			"name":"PRP_straight_bracket_0",
			"primitives":[
				{
					"attributes":{
						"POSITION":25,
						"NORMAL":26,
						"TEXCOORD_0":27
					},
					"indices":22,
					"material":0
				}
			]
		},
		{
			"name":"PRP_straight_bracket_1",
			"primitives":[
				{
					"attributes":{
						"POSITION":28,
						"NORMAL":29,
						"TEXCOORD_0":30
					},
					"indices":22,
					"material":0
				}
			]
		},
		{
			"name":"PRP_straight_bracket_2",
			"primitives":[
				{
					"attributes":{
						"POSITION":31,
						"NORMAL":32,
						"TEXCOORD_0":33
					},
					"indices":22,
					"material":0
				}
			]
		},
		{
			"name":"PRP_straight_bracket_3",
			"primitives":[
				{
					"attributes":{
						"POSITION":34,
						"NORMAL":35,
						"TEXCOORD_0":36
					},
					"indices":22,
					"material":0
				}
			]
		},
		{
			"name":"PRP_straight_bulb",
			"primitives":[
				{
					"attributes":{
						"POSITION":37,
						"NORMAL":38
					},
					"indices":39,
					"material":1
				}
			]
		},
		{
			"name":"PRP_straight_cable",
			"primitives":[
				{
					"attributes":{
						"POSITION":40,
						"NORMAL":41,
						"TEXCOORD_0":42
					},
					"indices":43,
					"material":2
				}
			]
		},
		{
			"name":"PRP_straight_pipe",
			"primitives":[
				{
					"attributes":{
						"POSITION":44,
						"NORMAL":45,
						"TEXCOORD_0":46
					},
					"indices":47,
					"material":0
				}
			]
		},
		{
			"name":"PRP_straight_rock_0",
			"primitives":[
				{
					"attributes":{
						"POSITION":48,
						"NORMAL":49,
						"TEXCOORD_0":50
					},
					"indices":51,
					"material":3
				}
			]
		},
		{
			"name":"PRP_straight_rock_1",
			"primitives":[
				{
					"attributes":{
						"POSITION":52,
						"NORMAL":53,
						"TEXCOORD_0":54
					},
					"indices":55,
					"material":3
				}
			]
		},
		{
			"name":"PRP_straight_rock_2",
			"primitives":[
				{
					"attributes":{
						"POSITION":56,
						"NORMAL":57,
						"TEXCOORD_0":58
					},
					"indices":59,
					"material":3
				}
			]
		},
		{
			"name":"PRP_straight_rock_3",
			"primitives":[
				{
					"attributes":{
						"POSITION":60,
						"NORMAL":61,
						"TEXCOORD_0":62
					},
					"indices":63,
					"material":3
				}
			]
		},
		{
			"name":"PRP_straight_rock_4",
			"primitives":[
				{
					"attributes":{
						"POSITION":64,
						"NORMAL":65,
						"TEXCOORD_0":66
					},
					"indices":67,
					"material":3
				}
			]
		},
		{
			"name":"PRP_straight_rock_5",
			"primitives":[
				{
					"attributes":{
						"POSITION":68,
						"NORMAL":69,
						"TEXCOORD_0":70
					},
					"indices":71,
					"material":3
				}
			]
		},
		{
			"name":"PRP_straight_rock_6",
			"primitives":[
				{
					"attributes":{
						"POSITION":72,
						"NORMAL":73,
						"TEXCOORD_0":74
					},
					"indices":75,
					"material":3
				}
			]
		},
		{
			"name":"PRP_straight_rock_7",
			"primitives":[
				{
					"attributes":{
						"POSITION":76,
						"NORMAL":77,
						"TEXCOORD_0":78
					},
					"indices":79,
					"material":3
				}
			]
		},
		{
			"name":"PRP_straight_rock_8",
			"primitives":[
				{
					"attributes":{
						"POSITION":80,
						"NORMAL":81,
						"TEXCOORD_0":82
					},
					"indices":83,
					"material":3
				}
			]
		},
		{
			"name":"PRP_straight_rock_9",
			"primitives":[
				{
					"attributes":{
						"POSITION":84,
						"NORMAL":85,
						"TEXCOORD_0":86
					},
					"indices":87,
					"material":3
				}
			]
		},
		{
			"name":"PRP_straight_rock_10",
			"primitives":[
				{
					"attributes":{
						"POSITION":88,
						"NORMAL":89,
						"TEXCOORD_0":90
					},
					"indices":91,
					"material":3
				}
			]
		},
		{
			"name":"PRP_straight_rock_11",
			"primitives":[
				{
					"attributes":{
						"POSITION":92,
						"NORMAL":93,
						"TEXCOORD_0":94
					},
					"indices":95,
					"material":3
				}
			]
		},
		{
			"name":"PRP_straight_socket",
			"primitives":[
				{
					"attributes":{
						"POSITION":96,
						"NORMAL":97
					},
					"indices":98,
					"material":2
				}
			]
		},
		{
			"name":"PRP_straight_wire",
			"primitives":[
				{
					"attributes":{
						"POSITION":99,
						"NORMAL":100
					},
					"indices":101,
					"material":2
				}
			]
		},
		{
			"name":"SHL_straight",
			"primitives":[
				{
					"attributes":{
						"POSITION":102,
						"NORMAL":103,
						"TEXCOORD_0":104
					},
					"indices":105,
					"material":4
				},
				{
					"attributes":{
						"POSITION":106,
						"NORMAL":107,
						"TEXCOORD_0":108
					},
					"indices":109,
					"material":5
				}
			]
		},
		{
			"name":"TMB_straight_1_post_L.001",
			"primitives":[
				{
					"attributes":{
						"POSITION":110,
						"NORMAL":111,
						"TEXCOORD_0":112
					},
					"indices":113,
					"material":6
				}
			]
		},
		{
			"name":"TMB_straight_0_cap",
			"primitives":[
				{
					"attributes":{
						"POSITION":114,
						"NORMAL":115,
						"TEXCOORD_0":116
					},
					"indices":117,
					"material":6
				}
			]
		},
		{
			"name":"TMB_straight_0_lag_0",
			"primitives":[
				{
					"attributes":{
						"POSITION":118,
						"NORMAL":119,
						"TEXCOORD_0":120
					},
					"indices":117,
					"material":6
				}
			]
		},
		{
			"name":"TMB_straight_0_lag_1",
			"primitives":[
				{
					"attributes":{
						"POSITION":121,
						"NORMAL":122,
						"TEXCOORD_0":123
					},
					"indices":117,
					"material":6
				}
			]
		},
		{
			"name":"TMB_straight_0_post_L",
			"primitives":[
				{
					"attributes":{
						"POSITION":124,
						"NORMAL":125,
						"TEXCOORD_0":126
					},
					"indices":117,
					"material":6
				}
			]
		},
		{
			"name":"TMB_straight_0_post_R",
			"primitives":[
				{
					"attributes":{
						"POSITION":127,
						"NORMAL":128,
						"TEXCOORD_0":129
					},
					"indices":117,
					"material":6
				}
			]
		},
		{
			"name":"TMB_straight_1_cap",
			"primitives":[
				{
					"attributes":{
						"POSITION":130,
						"NORMAL":131,
						"TEXCOORD_0":132
					},
					"indices":117,
					"material":6
				}
			]
		},
		{
			"name":"TMB_straight_1_lag_0",
			"primitives":[
				{
					"attributes":{
						"POSITION":133,
						"NORMAL":134,
						"TEXCOORD_0":135
					},
					"indices":117,
					"material":6
				}
			]
		},
		{
			"name":"TMB_straight_1_lag_1",
			"primitives":[
				{
					"attributes":{
						"POSITION":136,
						"NORMAL":137,
						"TEXCOORD_0":138
					},
					"indices":117,
					"material":6
				}
			]
		},
		{
			"name":"TMB_straight_1_post_L",
			"primitives":[
				{
					"attributes":{
						"POSITION":139,
						"NORMAL":140,
						"TEXCOORD_0":141
					},
					"indices":117,
					"material":6
				}
			]
		},
		{
			"name":"TMB_straight_1_post_R",
			"primitives":[
				{
					"attributes":{
						"POSITION":142,
						"NORMAL":143,
						"TEXCOORD_0":144
					},
					"indices":117,
					"material":6
				}
			]
		},
		{
			"name":"TMB_straight_2_cap",
			"primitives":[
				{
					"attributes":{
						"POSITION":145,
						"NORMAL":146,
						"TEXCOORD_0":147
					},
					"indices":117,
					"material":6
				}
			]
		},
		{
			"name":"TMB_straight_2_lag_0",
			"primitives":[
				{
					"attributes":{
						"POSITION":148,
						"NORMAL":149,
						"TEXCOORD_0":150
					},
					"indices":117,
					"material":6
				}
			]
		},
		{
			"name":"TMB_straight_2_lag_1",
			"primitives":[
				{
					"attributes":{
						"POSITION":151,
						"NORMAL":152,
						"TEXCOORD_0":153
					},
					"indices":117,
					"material":6
				}
			]
		},
		{
			"name":"TMB_straight_2_post_L",
			"primitives":[
				{
					"attributes":{
						"POSITION":154,
						"NORMAL":155,
						"TEXCOORD_0":156
					},
					"indices":117,
					"material":6
				}
			]
		},
		{
			"name":"TMB_straight_2_post_R",
			"primitives":[
				{
					"attributes":{
						"POSITION":157,
						"NORMAL":158,
						"TEXCOORD_0":159
					},
					"indices":117,
					"material":6
				}
			]
		},
		{
			"name":"TMB_straight_3_cap",
			"primitives":[
				{
					"attributes":{
						"POSITION":160,
						"NORMAL":161,
						"TEXCOORD_0":162
					},
					"indices":117,
					"material":6
				}
			]
		},
		{
			"name":"TMB_straight_3_lag_0",
			"primitives":[
				{
					"attributes":{
						"POSITION":163,
						"NORMAL":164,
						"TEXCOORD_0":165
					},
					"indices":117,
					"material":6
				}
			]
		},
		{
			"name":"TMB_straight_3_lag_1",
			"primitives":[
				{
					"attributes":{
						"POSITION":166,
						"NORMAL":167,
						"TEXCOORD_0":168
					},
					"indices":117,
					"material":6
				}
			]
		},
		{
			"name":"TMB_straight_3_post_L",
			"primitives":[
				{
					"attributes":{
						"POSITION":169,
						"NORMAL":170,
						"TEXCOORD_0":171
					},
					"indices":117,
					"material":6
				}
			]
		},
		{
			"name":"TMB_straight_3_post_R",
			"primitives":[
				{
					"attributes":{
						"POSITION":172,
						"NORMAL":173,
						"TEXCOORD_0":174
					},
					"indices":117,
					"material":6
				}
			]
		}
	],
	"textures":[
		{
			"sampler":0,
			"source":0
		},
		{
			"sampler":0,
			"source":1
		},
		{
			"sampler":0,
			"source":2
		},
		{
			"sampler":0,
			"source":3
		},
		{
			"sampler":0,
			"source":4
		},
		{
			"sampler":0,
			"source":5
		},
		{
			"sampler":0,
			"source":6
		},
		{
			"sampler":0,
			"source":7
		},
		{
			"sampler":0,
			"source":8
		},
		{
			"sampler":0,
			"source":9
		},
		{
			"sampler":0,
			"source":10
		},
		{
			"sampler":0,
			"source":11
		},
		{
			"sampler":0,
			"source":12
		},
		{
			"sampler":0,
			"source":13
		},
		{
			"sampler":0,
			"source":14
		}
	],
	"images":[
		{
			"mimeType":"image/jpeg",
			"name":"rusty_metal_02_nor_gl",
			"uri":"textures/rusty_metal_02_nor_gl.jpg"
		},
		{
			"mimeType":"image/jpeg",
			"name":"rusty_metal_02_Diffuse",
			"uri":"textures/rusty_metal_02_Diffuse.jpg"
		},
		{
			"mimeType":"image/jpeg",
			"name":"rusty_metal_02_Rough",
			"uri":"textures/rusty_metal_02_Rough.jpg"
		},
		{
			"mimeType":"image/jpeg",
			"name":"dark_rock_02_nor_gl",
			"uri":"textures/dark_rock_02_nor_gl.jpg"
		},
		{
			"mimeType":"image/jpeg",
			"name":"dark_rock_02_Diffuse",
			"uri":"textures/dark_rock_02_Diffuse.jpg"
		},
		{
			"mimeType":"image/jpeg",
			"name":"dark_rock_02_Rough",
			"uri":"textures/dark_rock_02_Rough.jpg"
		},
		{
			"mimeType":"image/jpeg",
			"name":"dark_rock_nor_gl",
			"uri":"textures/rock_face_04_nor_gl.jpg"
		},
		{
			"mimeType":"image/jpeg",
			"name":"dark_rock_Diffuse",
			"uri":"textures/rock_face_04_Diffuse.jpg"
		},
		{
			"mimeType":"image/jpeg",
			"name":"dark_rock_Rough",
			"uri":"textures/rock_face_04_Rough.jpg"
		},
		{
			"mimeType":"image/jpeg",
			"name":"brown_mud_rocks_01_nor_gl",
			"uri":"textures/brown_mud_rocks_01_nor_gl.jpg"
		},
		{
			"mimeType":"image/jpeg",
			"name":"brown_mud_rocks_01_Diffuse",
			"uri":"textures/brown_mud_rocks_01_Diffuse.jpg"
		},
		{
			"mimeType":"image/jpeg",
			"name":"brown_mud_rocks_01_Rough",
			"uri":"textures/brown_mud_rocks_01_Rough.jpg"
		},
		{
			"mimeType":"image/jpeg",
			"name":"dark_wooden_planks_nor_gl",
			"uri":"textures/dark_wooden_planks_nor_gl.jpg"
		},
		{
			"mimeType":"image/jpeg",
			"name":"dark_wooden_planks_Diffuse",
			"uri":"textures/dark_wooden_planks_Diffuse.jpg"
		},
		{
			"mimeType":"image/jpeg",
			"name":"dark_wooden_planks_Rough",
			"uri":"textures/dark_wooden_planks_Rough.jpg"
		}
	],
	"accessors":[
		{
			"bufferView":0,
			"componentType":5126,
			"count":24,
			"max":[
				-6.699999809265137,
				2.9000000953674316,
				0.8600000143051147
			],
			"min":[
				-7,
				0,
				-0.8399999737739563
			],
			"type":"VEC3"
		},
		{
			"bufferView":1,
			"componentType":5126,
			"count":24,
			"type":"VEC3"
		},
		{
			"bufferView":2,
			"componentType":5123,
			"count":36,
			"type":"SCALAR"
		},
		{
			"bufferView":3,
			"componentType":5126,
			"count":24,
			"max":[
				-3.5,
				0,
				0.9850000143051147
			],
			"min":[
				-7,
				-0.5,
				-0.9649999737739563
			],
			"type":"VEC3"
		},
		{
			"bufferView":4,
			"componentType":5126,
			"count":24,
			"type":"VEC3"
		},
		{
			"bufferView":5,
			"componentType":5123,
			"count":36,
			"type":"SCALAR"
		},
		{
			"bufferView":6,
			"componentType":5126,
			"count":24,
			"max":[
				-3.200000047683716,
				2.9000000953674316,
				0.9850000143051147
			],
			"min":[
				-6.699999809265137,
				2.5999999046325684,
				-0.9649999737739563
			],
			"type":"VEC3"
		},
		{
			"bufferView":7,
			"componentType":5126,
			"count":24,
			"type":"VEC3"
		},
		{
			"bufferView":8,
			"componentType":5126,
			"count":24,
			"max":[
				-3.200000047683716,
				2.5999999046325684,
				-0.5400000214576721
			],
			"min":[
				-6.699999809265137,
				0,
				-0.9649999737739563
			],
			"type":"VEC3"
		},
		{
			"bufferView":9,
			"componentType":5126,
			"count":24,
			"type":"VEC3"
		},
		{
			"bufferView":10,
			"componentType":5123,
			"count":36,
			"type":"SCALAR"
		},
		{
			"bufferView":11,
			"componentType":5126,
			"count":24,
			"max":[
				-3.200000047683716,
				2.5999999046325684,
				0.9850000143051147
			],
			"min":[
				-6.699999809265137,
				0,
				0.5600000023841858
			],
			"type":"VEC3"
		},
		{
			"bufferView":12,
			"componentType":5126,
			"count":24,
			"type":"VEC3"
		},
		{
			"bufferView":13,
			"componentType":5123,
			"count":36,
			"type":"SCALAR"
		},
		{
			"bufferView":14,
			"componentType":5126,
			"count":24,
			"max":[
				-3.200000047683716,
				5.599999904632568,
				-0.6650000214576721
			],
			"min":[
				-3.5,
				0,
				-3.5
			],
			"type":"VEC3"
		},
		{
			"bufferView":15,
			"componentType":5126,
			"count":24,
			"type":"VEC3"
		},
		{
			"bufferView":16,
			"componentType":5126,
			"count":24,
			"max":[
				-3.200000047683716,
				5.599999904632568,
				3.5
			],
			"min":[
				-3.5,
				0,
				0.6850000023841858
			],
			"type":"VEC3"
		},
		{
			"bufferView":17,
			"componentType":5126,
			"count":24,
			"type":"VEC3"
		},
		{
			"bufferView":18,
			"componentType":5126,
			"count":24,
			"max":[
				-3.200000047683716,
				5.599999904632568,
				0.6850000023841858
			],
			"min":[
				-3.5,
				2.5999999046325684,
				-0.6650000214576721
			],
			"type":"VEC3"
		},
		{
			"bufferView":19,
			"componentType":5126,
			"count":24,
			"type":"VEC3"
		},
		{
			"bufferView":20,
			"componentType":5126,
			"count":24,
			"max":[
				3.5,
				0.25,
				3.5
			],
			"min":[
				-3.5,
				-0.25,
				-3.5
			],
			"type":"VEC3"
		},
		{
			"bufferView":21,
			"componentType":5126,
			"count":24,
			"type":"VEC3"
		},
		{
			"bufferView":22,
			"componentType":5123,
			"count":36,
			"type":"SCALAR"
		},
		{
			"bufferView":23,
			"componentType":5126,
			"count":24,
			"max":[
				0.15000000596046448,
				2.799999952316284,
				3.5
			],
			"min":[
				-0.15000000596046448,
				-2.799999952316284,
				-3.5
			],
			"type":"VEC3"
		},
		{
			"bufferView":24,
			"componentType":5126,
			"count":24,
			"type":"VEC3"
		},
		{
			"bufferView":25,
			"componentType":5126,
			"count":24,
			"max":[
				0.20999999344348907,
				0.029999999329447746,
				0.029999999329447746
			],
			"min":[
				-0.20999999344348907,
				-0.029999999329447746,
				-0.029999999329447746
			],
			"type":"VEC3"
		},
		{
			"bufferView":26,
			"componentType":5126,
			"count":24,
			"type":"VEC3"
		},
		{
			"bufferView":27,
			"componentType":5126,
			"count":24,
			"type":"VEC2"
		},
		{
			"bufferView":28,
			"componentType":5126,
			"count":24,
			"max":[
				0.20999999344348907,
				0.029999999329447746,
				0.029999999329447746
			],
			"min":[
				-0.20999999344348907,
				-0.029999999329447746,
				-0.029999999329447746
			],
			"type":"VEC3"
		},
		{
			"bufferView":29,
			"componentType":5126,
			"count":24,
			"type":"VEC3"
		},
		{
			"bufferView":30,
			"componentType":5126,
			"count":24,
			"type":"VEC2"
		},
		{
			"bufferView":31,
			"componentType":5126,
			"count":24,
			"max":[
				0.20999999344348907,
				0.029999999329447746,
				0.029999999329447746
			],
			"min":[
				-0.20999999344348907,
				-0.029999999329447746,
				-0.029999999329447746
			],
			"type":"VEC3"
		},
		{
			"bufferView":32,
			"componentType":5126,
			"count":24,
			"type":"VEC3"
		},
		{
			"bufferView":33,
			"componentType":5126,
			"count":24,
			"type":"VEC2"
		},
		{
			"bufferView":34,
			"componentType":5126,
			"count":24,
			"max":[
				0.20999999344348907,
				0.029999999329447746,
				0.029999999329447746
			],
			"min":[
				-0.20999999344348907,
				-0.029999999329447746,
				-0.029999999329447746
			],
			"type":"VEC3"
		},
		{
			"bufferView":35,
			"componentType":5126,
			"count":24,
			"type":"VEC3"
		},
		{
			"bufferView":36,
			"componentType":5126,
			"count":24,
			"type":"VEC2"
		},
		{
			"bufferView":37,
			"componentType":5126,
			"count":52,
			"max":[
				0.03804226219654083,
				0.03999999910593033,
				0.03999999910593033
			],
			"min":[
				-0.03804226219654083,
				-0.03999999910593033,
				-0.03999999910593033
			],
			"type":"VEC3"
		},
		{
			"bufferView":38,
			"componentType":5126,
			"count":52,
			"type":"VEC3"
		},
		{
			"bufferView":39,
			"componentType":5123,
			"count":300,
			"type":"SCALAR"
		},
		{
			"bufferView":40,
			"componentType":5126,
			"count":540,
			"max":[
				3.313981771469116,
				4.711940288543701,
				3.5011940002441406
			],
			"min":[
				3.27211332321167,
				4.548059463500977,
				-3.5011937618255615
			],
			"type":"VEC3"
		},
		{
			"bufferView":41,
			"componentType":5126,
			"count":540,
			"type":"VEC3"
		},
		{
			"bufferView":42,
			"componentType":5126,
			"count":540,
			"type":"VEC2"
		},
		{
			"bufferView":43,
			"componentType":5123,
			"count":2832,
			"type":"SCALAR"
		},
		{
			"bufferView":44,
			"componentType":5126,
			"count":56,
			"max":[
				0.04500000178813934,
				3.5,
				0.04500000178813934
			],
			"min":[
				-0.04500000178813934,
				-3.5,
				-0.04500000178813934
			],
			"type":"VEC3"
		},
		{
			"bufferView":45,
			"componentType":5126,
			"count":56,
			"type":"VEC3"
		},
		{
			"bufferView":46,
			"componentType":5126,
			"count":56,
			"type":"VEC2"
		},
		{
			"bufferView":47,
			"componentType":5123,
			"count":132,
			"type":"SCALAR"
		},
		{
			"bufferView":48,
			"componentType":5126,
			"count":30,
			"max":[
				0.8248939514160156,
				1.067144751548767,
				1.0099296569824219
			],
			"min":[
				-0.831371545791626,
				-1.0077457427978516,
				-1.020571231842041
			],
			"type":"VEC3"
		},
		{
			"bufferView":49,
			"componentType":5126,
			"count":30,
			"type":"VEC3"
		},
		{
			"bufferView":50,
			"componentType":5126,
			"count":30,
			"type":"VEC2"
		},
		{
			"bufferView":51,
			"componentType":5123,
			"count":60,
			"type":"SCALAR"
		},
		{
			"bufferView":52,
			"componentType":5126,
			"count":26,
			"max":[
				0.8860312700271606,
				0.9940340518951416,
				0.9078077077865601
			],
			"min":[
				-0.8883899450302124,
				-1.0183093547821045,
				-0.8396459817886353
			],
			"type":"VEC3"
		},
		{
			"bufferView":53,
			"componentType":5126,
			"count":26,
			"type":"VEC3"
		},
		{
			"bufferView":54,
			"componentType":5126,
			"count":26,
			"type":"VEC2"
		},
		{
			"bufferView":55,
			"componentType":5123,
			"count":60,
			"type":"SCALAR"
		},
		{
			"bufferView":56,
			"componentType":5126,
			"count":31,
			"max":[
				1.0489137172698975,
				1.0091984272003174,
				1.0428956747055054
			],
			"min":[
				-0.832598865032196,
				-1.0081672668457031,
				-0.9314804077148438
			],
			"type":"VEC3"
		},
		{
			"bufferView":57,
			"componentType":5126,
			"count":31,
			"type":"VEC3"
		},
		{
			"bufferView":58,
			"componentType":5126,
			"count":31,
			"type":"VEC2"
		},
		{
			"bufferView":59,
			"componentType":5123,
			"count":60,
			"type":"SCALAR"
		},
		{
			"bufferView":60,
			"componentType":5126,
			"count":32,
			"max":[
				0.8820103406906128,
				0.8468225002288818,
				0.8475699424743652
			],
			"min":[
				-0.9007403254508972,
				-1.1291612386703491,
				-0.9796520471572876
			],
			"type":"VEC3"
		},
		{
			"bufferView":61,
			"componentType":5126,
			"count":32,
			"type":"VEC3"
		},
		{
			"bufferView":62,
			"componentType":5126,
			"count":32,
			"type":"VEC2"
		},
		{
			"bufferView":63,
			"componentType":5123,
			"count":60,
			"type":"SCALAR"
		},
		{
			"bufferView":64,
			"componentType":5126,
			"count":31,
			"max":[
				0.72444087266922,
				0.9442678689956665,
				1.0246825218200684
			],
			"min":[
				-1.1114346981048584,
				-0.985040009021759,
				-0.9929744005203247
			],
			"type":"VEC3"
		},
		{
			"bufferView":65,
			"componentType":5126,
			"count":31,
			"type":"VEC3"
		},
		{
			"bufferView":66,
			"componentType":5126,
			"count":31,
			"type":"VEC2"
		},
		{
			"bufferView":67,
			"componentType":5123,
			"count":60,
			"type":"SCALAR"
		},
		{
			"bufferView":68,
			"componentType":5126,
			"count":30,
			"max":[
				1.0404447317123413,
				1.2401529550552368,
				1.0406737327575684
			],
			"min":[
				-0.9949578642845154,
				-0.9479192495346069,
				-0.710284411907196
			],
			"type":"VEC3"
		},
		{
			"bufferView":69,
			"componentType":5126,
			"count":30,
			"type":"VEC3"
		},
		{
			"bufferView":70,
			"componentType":5126,
			"count":30,
			"type":"VEC2"
		},
		{
			"bufferView":71,
			"componentType":5123,
			"count":60,
			"type":"SCALAR"
		},
		{
			"bufferView":72,
			"componentType":5126,
			"count":31,
			"max":[
				0.8580979108810425,
				1.2050085067749023,
				0.9893618822097778
			],
			"min":[
				-0.7651993036270142,
				-0.9669046998023987,
				-0.8161940574645996
			],
			"type":"VEC3"
		},
		{
			"bufferView":73,
			"componentType":5126,
			"count":31,
			"type":"VEC3"
		},
		{
			"bufferView":74,
			"componentType":5126,
			"count":31,
			"type":"VEC2"
		},
		{
			"bufferView":75,
			"componentType":5123,
			"count":60,
			"type":"SCALAR"
		},
		{
			"bufferView":76,
			"componentType":5126,
			"count":32,
			"max":[
				0.9026307463645935,
				1.0277209281921387,
				0.8393658995628357
			],
			"min":[
				-0.8050757050514221,
				-0.759352445602417,
				-0.9778845310211182
			],
			"type":"VEC3"
		},
		{
			"bufferView":77,
			"componentType":5126,
			"count":32,
			"type":"VEC3"
		},
		{
			"bufferView":78,
			"componentType":5126,
			"count":32,
			"type":"VEC2"
		},
		{
			"bufferView":79,
			"componentType":5123,
			"count":60,
			"type":"SCALAR"
		},
		{
			"bufferView":80,
			"componentType":5126,
			"count":31,
			"max":[
				1.0918700695037842,
				1.0996088981628418,
				0.9326132535934448
			],
			"min":[
				-0.9447489380836487,
				-1.1299965381622314,
				-0.8530018925666809
			],
			"type":"VEC3"
		},
		{
			"bufferView":81,
			"componentType":5126,
			"count":31,
			"type":"VEC3"
		},
		{
			"bufferView":82,
			"componentType":5126,
			"count":31,
			"type":"VEC2"
		},
		{
			"bufferView":83,
			"componentType":5123,
			"count":60,
			"type":"SCALAR"
		},
		{
			"bufferView":84,
			"componentType":5126,
			"count":31,
			"max":[
				0.8263290524482727,
				1.1914163827896118,
				1.0195051431655884
			],
			"min":[
				-0.8017929196357727,
				-0.9710590243339539,
				-0.9227206707000732
			],
			"type":"VEC3"
		},
		{
			"bufferView":85,
			"componentType":5126,
			"count":31,
			"type":"VEC3"
		},
		{
			"bufferView":86,
			"componentType":5126,
			"count":31,
			"type":"VEC2"
		},
		{
			"bufferView":87,
			"componentType":5123,
			"count":60,
			"type":"SCALAR"
		},
		{
			"bufferView":88,
			"componentType":5126,
			"count":32,
			"max":[
				0.9498468041419983,
				1.0061311721801758,
				0.8736289143562317
			],
			"min":[
				-0.8132672309875488,
				-1.0078024864196777,
				-0.9451262354850769
			],
			"type":"VEC3"
		},
		{
			"bufferView":89,
			"componentType":5126,
			"count":32,
			"type":"VEC3"
		},
		{
			"bufferView":90,
			"componentType":5126,
			"count":32,
			"type":"VEC2"
		},
		{
			"bufferView":91,
			"componentType":5123,
			"count":60,
			"type":"SCALAR"
		},
		{
			"bufferView":92,
			"componentType":5126,
			"count":32,
			"max":[
				0.8849649429321289,
				0.889531135559082,
				0.9866491556167603
			],
			"min":[
				-1.0507652759552002,
				-0.840775728225708,
				-0.9254859089851379
			],
			"type":"VEC3"
		},
		{
			"bufferView":93,
			"componentType":5126,
			"count":32,
			"type":"VEC3"
		},
		{
			"bufferView":94,
			"componentType":5126,
			"count":32,
			"type":"VEC2"
		},
		{
			"bufferView":95,
			"componentType":5123,
			"count":60,
			"type":"SCALAR"
		},
		{
			"bufferView":96,
			"componentType":5126,
			"count":16,
			"max":[
				0.019999999552965164,
				0.03500000014901161,
				0.019999999552965164
			],
			"min":[
				-0.019999999552965164,
				-0.03500000014901161,
				-0.019999999552965164
			],
			"type":"VEC3"
		},
		{
			"bufferView":97,
			"componentType":5126,
			"count":16,
			"type":"VEC3"
		},
		{
			"bufferView":98,
			"componentType":5123,
			"count":84,
			"type":"SCALAR"
		},
		{
			"bufferView":99,
			"componentType":5126,
			"count":10,
			"max":[
				0.00570633914321661,
				0.14000000059604645,
				0.004854102153331041
			],
			"min":[
				-0.00570633914321661,
				-0.14000000059604645,
				-0.006000000052154064
			],
			"type":"VEC3"
		},
		{
			"bufferView":100,
			"componentType":5126,
			"count":10,
			"type":"VEC3"
		},
		{
			"bufferView":101,
			"componentType":5123,
			"count":48,
			"type":"SCALAR"
		},
		{
			"bufferView":102,
			"componentType":5126,
			"count":1379,
			"max":[
				3.5,
				5.599999904632568,
				3.5
			],
			"min":[
				-6.7291951179504395,
				0,
				-3.5
			],
			"type":"VEC3"
		},
		{
			"bufferView":103,
			"componentType":5126,
			"count":1379,
			"type":"VEC3"
		},
		{
			"bufferView":104,
			"componentType":5126,
			"count":1379,
			"type":"VEC2"
		},
		{
			"bufferView":105,
			"componentType":5123,
			"count":6105,
			"type":"SCALAR"
		},
		{
			"bufferView":106,
			"componentType":5126,
			"count":461,
			"max":[
				3.5,
				0.047992609441280365,
				3.5
			],
			"min":[
				-6.642251491546631,
				0,
				-3.5
			],
			"type":"VEC3"
		},
		{
			"bufferView":107,
			"componentType":5126,
			"count":461,
			"type":"VEC3"
		},
		{
			"bufferView":108,
			"componentType":5126,
			"count":461,
			"type":"VEC2"
		},
		{
			"bufferView":109,
			"componentType":5123,
			"count":2430,
			"type":"SCALAR"
		},
		{
			"bufferView":110,
			"componentType":5126,
			"count":98,
			"max":[
				0.3234255909919739,
				0.5746182203292847,
				0.17466530203819275
			],
			"min":[
				0.023723900318145752,
				0.24552227556705475,
				-1.9262043237686157
			],
			"type":"VEC3"
		},
		{
			"bufferView":111,
			"componentType":5126,
			"count":98,
			"type":"VEC3"
		},
		{
			"bufferView":112,
			"componentType":5126,
			"count":98,
			"type":"VEC2"
		},
		{
			"bufferView":113,
			"componentType":5123,
			"count":132,
			"type":"SCALAR"
		},
		{
			"bufferView":114,
			"componentType":5126,
			"count":96,
			"max":[
				3.490000009536743,
				0.18000000715255737,
				0.18000000715255737
			],
			"min":[
				-3.490000009536743,
				-0.18000000715255737,
				-0.18000000715255737
			],
			"type":"VEC3"
		},
		{
			"bufferView":115,
			"componentType":5126,
			"count":96,
			"type":"VEC3"
		},
		{
			"bufferView":116,
			"componentType":5126,
			"count":96,
			"type":"VEC2"
		},
		{
			"bufferView":117,
			"componentType":5123,
			"count":132,
			"type":"SCALAR"
		},
		{
			"bufferView":118,
			"componentType":5126,
			"count":96,
			"max":[
				0.15000000596046448,
				0.02500000037252903,
				0.7875000238418579
			],
			"min":[
				-0.15000000596046448,
				-0.02500000037252903,
				-0.7875000238418579
			],
			"type":"VEC3"
		},
		{
			"bufferView":119,
			"componentType":5126,
			"count":96,
			"type":"VEC3"
		},
		{
			"bufferView":120,
			"componentType":5126,
			"count":96,
			"type":"VEC2"
		},
		{
			"bufferView":121,
			"componentType":5126,
			"count":96,
			"max":[
				0.15000000596046448,
				0.02500000037252903,
				0.7875000238418579
			],
			"min":[
				-0.15000000596046448,
				-0.02500000037252903,
				-0.7875000238418579
			],
			"type":"VEC3"
		},
		{
			"bufferView":122,
			"componentType":5126,
			"count":96,
			"type":"VEC3"
		},
		{
			"bufferView":123,
			"componentType":5126,
			"count":96,
			"type":"VEC2"
		},
		{
			"bufferView":124,
			"componentType":5126,
			"count":96,
			"max":[
				0.17000000178813934,
				2.4000000953674316,
				0.17000000178813934
			],
			"min":[
				-0.17000000178813934,
				-2.4000000953674316,
				-0.17000000178813934
			],
			"type":"VEC3"
		},
		{
			"bufferView":125,
			"componentType":5126,
			"count":96,
			"type":"VEC3"
		},
		{
			"bufferView":126,
			"componentType":5126,
			"count":96,
			"type":"VEC2"
		},
		{
			"bufferView":127,
			"componentType":5126,
			"count":96,
			"max":[
				0.17000000178813934,
				2.4000000953674316,
				0.17000000178813934
			],
			"min":[
				-0.17000000178813934,
				-2.4000000953674316,
				-0.17000000178813934
			],
			"type":"VEC3"
		},
		{
			"bufferView":128,
			"componentType":5126,
			"count":96,
			"type":"VEC3"
		},
		{
			"bufferView":129,
			"componentType":5126,
			"count":96,
			"type":"VEC2"
		},
		{
			"bufferView":130,
			"componentType":5126,
			"count":96,
			"max":[
				3.490000009536743,
				0.18000000715255737,
				0.18000000715255737
			],
			"min":[
				-3.490000009536743,
				-0.18000000715255737,
				-0.18000000715255737
			],
			"type":"VEC3"
		},
		{
			"bufferView":131,
			"componentType":5126,
			"count":96,
			"type":"VEC3"
		},
		{
			"bufferView":132,
			"componentType":5126,
			"count":96,
			"type":"VEC2"
		},
		{
			"bufferView":133,
			"componentType":5126,
			"count":96,
			"max":[
				0.15000000596046448,
				0.02500000037252903,
				0.7875000238418579
			],
			"min":[
				-0.15000000596046448,
				-0.02500000037252903,
				-0.7875000238418579
			],
			"type":"VEC3"
		},
		{
			"bufferView":134,
			"componentType":5126,
			"count":96,
			"type":"VEC3"
		},
		{
			"bufferView":135,
			"componentType":5126,
			"count":96,
			"type":"VEC2"
		},
		{
			"bufferView":136,
			"componentType":5126,
			"count":96,
			"max":[
				0.15000000596046448,
				0.02500000037252903,
				0.7875000238418579
			],
			"min":[
				-0.15000000596046448,
				-0.02500000037252903,
				-0.7875000238418579
			],
			"type":"VEC3"
		},
		{
			"bufferView":137,
			"componentType":5126,
			"count":96,
			"type":"VEC3"
		},
		{
			"bufferView":138,
			"componentType":5126,
			"count":96,
			"type":"VEC2"
		},
		{
			"bufferView":139,
			"componentType":5126,
			"count":96,
			"max":[
				0.17000000178813934,
				2.4000000953674316,
				0.17000000178813934
			],
			"min":[
				-0.17000000178813934,
				-2.4000000953674316,
				-0.17000000178813934
			],
			"type":"VEC3"
		},
		{
			"bufferView":140,
			"componentType":5126,
			"count":96,
			"type":"VEC3"
		},
		{
			"bufferView":141,
			"componentType":5126,
			"count":96,
			"type":"VEC2"
		},
		{
			"bufferView":142,
			"componentType":5126,
			"count":96,
			"max":[
				0.17000000178813934,
				2.4000000953674316,
				0.17000000178813934
			],
			"min":[
				-0.17000000178813934,
				-2.4000000953674316,
				-0.17000000178813934
			],
			"type":"VEC3"
		},
		{
			"bufferView":143,
			"componentType":5126,
			"count":96,
			"type":"VEC3"
		},
		{
			"bufferView":144,
			"componentType":5126,
			"count":96,
			"type":"VEC2"
		},
		{
			"bufferView":145,
			"componentType":5126,
			"count":96,
			"max":[
				3.490000009536743,
				0.18000000715255737,
				0.18000000715255737
			],
			"min":[
				-3.490000009536743,
				-0.18000000715255737,
				-0.18000000715255737
			],
			"type":"VEC3"
		},
		{
			"bufferView":146,
			"componentType":5126,
			"count":96,
			"type":"VEC3"
		},
		{
			"bufferView":147,
			"componentType":5126,
			"count":96,
			"type":"VEC2"
		},
		{
			"bufferView":148,
			"componentType":5126,
			"count":96,
			"max":[
				0.15000000596046448,
				0.02500000037252903,
				0.7875000238418579
			],
			"min":[
				-0.15000000596046448,
				-0.02500000037252903,
				-0.7875000238418579
			],
			"type":"VEC3"
		},
		{
			"bufferView":149,
			"componentType":5126,
			"count":96,
			"type":"VEC3"
		},
		{
			"bufferView":150,
			"componentType":5126,
			"count":96,
			"type":"VEC2"
		},
		{
			"bufferView":151,
			"componentType":5126,
			"count":96,
			"max":[
				0.15000000596046448,
				0.02500000037252903,
				0.7875000238418579
			],
			"min":[
				-0.15000000596046448,
				-0.02500000037252903,
				-0.7875000238418579
			],
			"type":"VEC3"
		},
		{
			"bufferView":152,
			"componentType":5126,
			"count":96,
			"type":"VEC3"
		},
		{
			"bufferView":153,
			"componentType":5126,
			"count":96,
			"type":"VEC2"
		},
		{
			"bufferView":154,
			"componentType":5126,
			"count":96,
			"max":[
				0.17000000178813934,
				2.4000000953674316,
				0.17000000178813934
			],
			"min":[
				-0.17000000178813934,
				-2.4000000953674316,
				-0.17000000178813934
			],
			"type":"VEC3"
		},
		{
			"bufferView":155,
			"componentType":5126,
			"count":96,
			"type":"VEC3"
		},
		{
			"bufferView":156,
			"componentType":5126,
			"count":96,
			"type":"VEC2"
		},
		{
			"bufferView":157,
			"componentType":5126,
			"count":96,
			"max":[
				0.17000000178813934,
				2.4000000953674316,
				0.17000000178813934
			],
			"min":[
				-0.17000000178813934,
				-2.4000000953674316,
				-0.17000000178813934
			],
			"type":"VEC3"
		},
		{
			"bufferView":158,
			"componentType":5126,
			"count":96,
			"type":"VEC3"
		},
		{
			"bufferView":159,
			"componentType":5126,
			"count":96,
			"type":"VEC2"
		},
		{
			"bufferView":160,
			"componentType":5126,
			"count":96,
			"max":[
				3.490000009536743,
				0.18000000715255737,
				0.18000000715255737
			],
			"min":[
				-3.490000009536743,
				-0.18000000715255737,
				-0.18000000715255737
			],
			"type":"VEC3"
		},
		{
			"bufferView":161,
			"componentType":5126,
			"count":96,
			"type":"VEC3"
		},
		{
			"bufferView":162,
			"componentType":5126,
			"count":96,
			"type":"VEC2"
		},
		{
			"bufferView":163,
			"componentType":5126,
			"count":96,
			"max":[
				0.15000000596046448,
				0.02500000037252903,
				0.7875000238418579
			],
			"min":[
				-0.15000000596046448,
				-0.02500000037252903,
				-0.7875000238418579
			],
			"type":"VEC3"
		},
		{
			"bufferView":164,
			"componentType":5126,
			"count":96,
			"type":"VEC3"
		},
		{
			"bufferView":165,
			"componentType":5126,
			"count":96,
			"type":"VEC2"
		},
		{
			"bufferView":166,
			"componentType":5126,
			"count":96,
			"max":[
				0.15000000596046448,
				0.02500000037252903,
				0.7875000238418579
			],
			"min":[
				-0.15000000596046448,
				-0.02500000037252903,
				-0.7875000238418579
			],
			"type":"VEC3"
		},
		{
			"bufferView":167,
			"componentType":5126,
			"count":96,
			"type":"VEC3"
		},
		{
			"bufferView":168,
			"componentType":5126,
			"count":96,
			"type":"VEC2"
		},
		{
			"bufferView":169,
			"componentType":5126,
			"count":96,
			"max":[
				0.17000000178813934,
				2.4000000953674316,
				0.17000000178813934
			],
			"min":[
				-0.17000000178813934,
				-2.4000000953674316,
				-0.17000000178813934
			],
			"type":"VEC3"
		},
		{
			"bufferView":170,
			"componentType":5126,
			"count":96,
			"type":"VEC3"
		},
		{
			"bufferView":171,
			"componentType":5126,
			"count":96,
			"type":"VEC2"
		},
		{
			"bufferView":172,
			"componentType":5126,
			"count":96,
			"max":[
				0.17000000178813934,
				2.4000000953674316,
				0.17000000178813934
			],
			"min":[
				-0.17000000178813934,
				-2.4000000953674316,
				-0.17000000178813934
			],
			"type":"VEC3"
		},
		{
			"bufferView":173,
			"componentType":5126,
			"count":96,
			"type":"VEC3"
		},
		{
			"bufferView":174,
			"componentType":5126,
			"count":96,
			"type":"VEC2"
		}
	],
	"bufferViews":[
		{
			"buffer":0,
			"byteLength":288,
			"byteOffset":0,
			"target":34962
		},
		{
			"buffer":0,
			"byteLength":288,
			"byteOffset":288,
			"target":34962
		},
		{
			"buffer":0,
			"byteLength":72,
			"byteOffset":576,
			"target":34963
		},
		{
			"buffer":0,
			"byteLength":288,
			"byteOffset":648,
			"target":34962
		},
		{
			"buffer":0,
			"byteLength":288,
			"byteOffset":936,
			"target":34962
		},
		{
			"buffer":0,
			"byteLength":72,
			"byteOffset":1224,
			"target":34963
		},
		{
			"buffer":0,
			"byteLength":288,
			"byteOffset":1296,
			"target":34962
		},
		{
			"buffer":0,
			"byteLength":288,
			"byteOffset":1584,
			"target":34962
		},
		{
			"buffer":0,
			"byteLength":288,
			"byteOffset":1872,
			"target":34962
		},
		{
			"buffer":0,
			"byteLength":288,
			"byteOffset":2160,
			"target":34962
		},
		{
			"buffer":0,
			"byteLength":72,
			"byteOffset":2448,
			"target":34963
		},
		{
			"buffer":0,
			"byteLength":288,
			"byteOffset":2520,
			"target":34962
		},
		{
			"buffer":0,
			"byteLength":288,
			"byteOffset":2808,
			"target":34962
		},
		{
			"buffer":0,
			"byteLength":72,
			"byteOffset":3096,
			"target":34963
		},
		{
			"buffer":0,
			"byteLength":288,
			"byteOffset":3168,
			"target":34962
		},
		{
			"buffer":0,
			"byteLength":288,
			"byteOffset":3456,
			"target":34962
		},
		{
			"buffer":0,
			"byteLength":288,
			"byteOffset":3744,
			"target":34962
		},
		{
			"buffer":0,
			"byteLength":288,
			"byteOffset":4032,
			"target":34962
		},
		{
			"buffer":0,
			"byteLength":288,
			"byteOffset":4320,
			"target":34962
		},
		{
			"buffer":0,
			"byteLength":288,
			"byteOffset":4608,
			"target":34962
		},
		{
			"buffer":0,
			"byteLength":288,
			"byteOffset":4896,
			"target":34962
		},
		{
			"buffer":0,
			"byteLength":288,
			"byteOffset":5184,
			"target":34962
		},
		{
			"buffer":0,
			"byteLength":72,
			"byteOffset":5472,
			"target":34963
		},
		{
			"buffer":0,
			"byteLength":288,
			"byteOffset":5544,
			"target":34962
		},
		{
			"buffer":0,
			"byteLength":288,
			"byteOffset":5832,
			"target":34962
		},
		{
			"buffer":0,
			"byteLength":288,
			"byteOffset":6120,
			"target":34962
		},
		{
			"buffer":0,
			"byteLength":288,
			"byteOffset":6408,
			"target":34962
		},
		{
			"buffer":0,
			"byteLength":192,
			"byteOffset":6696,
			"target":34962
		},
		{
			"buffer":0,
			"byteLength":288,
			"byteOffset":6888,
			"target":34962
		},
		{
			"buffer":0,
			"byteLength":288,
			"byteOffset":7176,
			"target":34962
		},
		{
			"buffer":0,
			"byteLength":192,
			"byteOffset":7464,
			"target":34962
		},
		{
			"buffer":0,
			"byteLength":288,
			"byteOffset":7656,
			"target":34962
		},
		{
			"buffer":0,
			"byteLength":288,
			"byteOffset":7944,
			"target":34962
		},
		{
			"buffer":0,
			"byteLength":192,
			"byteOffset":8232,
			"target":34962
		},
		{
			"buffer":0,
			"byteLength":288,
			"byteOffset":8424,
			"target":34962
		},
		{
			"buffer":0,
			"byteLength":288,
			"byteOffset":8712,
			"target":34962
		},
		{
			"buffer":0,
			"byteLength":192,
			"byteOffset":9000,
			"target":34962
		},
		{
			"buffer":0,
			"byteLength":624,
			"byteOffset":9192,
			"target":34962
		},
		{
			"buffer":0,
			"byteLength":624,
			"byteOffset":9816,
			"target":34962
		},
		{
			"buffer":0,
			"byteLength":600,
			"byteOffset":10440,
			"target":34963
		},
		{
			"buffer":0,
			"byteLength":6480,
			"byteOffset":11040,
			"target":34962
		},
		{
			"buffer":0,
			"byteLength":6480,
			"byteOffset":17520,
			"target":34962
		},
		{
			"buffer":0,
			"byteLength":4320,
			"byteOffset":24000,
			"target":34962
		},
		{
			"buffer":0,
			"byteLength":5664,
			"byteOffset":28320,
			"target":34963
		},
		{
			"buffer":0,
			"byteLength":672,
			"byteOffset":33984,
			"target":34962
		},
		{
			"buffer":0,
			"byteLength":672,
			"byteOffset":34656,
			"target":34962
		},
		{
			"buffer":0,
			"byteLength":448,
			"byteOffset":35328,
			"target":34962
		},
		{
			"buffer":0,
			"byteLength":264,
			"byteOffset":35776,
			"target":34963
		},
		{
			"buffer":0,
			"byteLength":360,
			"byteOffset":36040,
			"target":34962
		},
		{
			"buffer":0,
			"byteLength":360,
			"byteOffset":36400,
			"target":34962
		},
		{
			"buffer":0,
			"byteLength":240,
			"byteOffset":36760,
			"target":34962
		},
		{
			"buffer":0,
			"byteLength":120,
			"byteOffset":37000,
			"target":34963
		},
		{
			"buffer":0,
			"byteLength":312,
			"byteOffset":37120,
			"target":34962
		},
		{
			"buffer":0,
			"byteLength":312,
			"byteOffset":37432,
			"target":34962
		},
		{
			"buffer":0,
			"byteLength":208,
			"byteOffset":37744,
			"target":34962
		},
		{
			"buffer":0,
			"byteLength":120,
			"byteOffset":37952,
			"target":34963
		},
		{
			"buffer":0,
			"byteLength":372,
			"byteOffset":38072,
			"target":34962
		},
		{
			"buffer":0,
			"byteLength":372,
			"byteOffset":38444,
			"target":34962
		},
		{
			"buffer":0,
			"byteLength":248,
			"byteOffset":38816,
			"target":34962
		},
		{
			"buffer":0,
			"byteLength":120,
			"byteOffset":39064,
			"target":34963
		},
		{
			"buffer":0,
			"byteLength":384,
			"byteOffset":39184,
			"target":34962
		},
		{
			"buffer":0,
			"byteLength":384,
			"byteOffset":39568,
			"target":34962
		},
		{
			"buffer":0,
			"byteLength":256,
			"byteOffset":39952,
			"target":34962
		},
		{
			"buffer":0,
			"byteLength":120,
			"byteOffset":40208,
			"target":34963
		},
		{
			"buffer":0,
			"byteLength":372,
			"byteOffset":40328,
			"target":34962
		},
		{
			"buffer":0,
			"byteLength":372,
			"byteOffset":40700,
			"target":34962
		},
		{
			"buffer":0,
			"byteLength":248,
			"byteOffset":41072,
			"target":34962
		},
		{
			"buffer":0,
			"byteLength":120,
			"byteOffset":41320,
			"target":34963
		},
		{
			"buffer":0,
			"byteLength":360,
			"byteOffset":41440,
			"target":34962
		},
		{
			"buffer":0,
			"byteLength":360,
			"byteOffset":41800,
			"target":34962
		},
		{
			"buffer":0,
			"byteLength":240,
			"byteOffset":42160,
			"target":34962
		},
		{
			"buffer":0,
			"byteLength":120,
			"byteOffset":42400,
			"target":34963
		},
		{
			"buffer":0,
			"byteLength":372,
			"byteOffset":42520,
			"target":34962
		},
		{
			"buffer":0,
			"byteLength":372,
			"byteOffset":42892,
			"target":34962
		},
		{
			"buffer":0,
			"byteLength":248,
			"byteOffset":43264,
			"target":34962
		},
		{
			"buffer":0,
			"byteLength":120,
			"byteOffset":43512,
			"target":34963
		},
		{
			"buffer":0,
			"byteLength":384,
			"byteOffset":43632,
			"target":34962
		},
		{
			"buffer":0,
			"byteLength":384,
			"byteOffset":44016,
			"target":34962
		},
		{
			"buffer":0,
			"byteLength":256,
			"byteOffset":44400,
			"target":34962
		},
		{
			"buffer":0,
			"byteLength":120,
			"byteOffset":44656,
			"target":34963
		},
		{
			"buffer":0,
			"byteLength":372,
			"byteOffset":44776,
			"target":34962
		},
		{
			"buffer":0,
			"byteLength":372,
			"byteOffset":45148,
			"target":34962
		},
		{
			"buffer":0,
			"byteLength":248,
			"byteOffset":45520,
			"target":34962
		},
		{
			"buffer":0,
			"byteLength":120,
			"byteOffset":45768,
			"target":34963
		},
		{
			"buffer":0,
			"byteLength":372,
			"byteOffset":45888,
			"target":34962
		},
		{
			"buffer":0,
			"byteLength":372,
			"byteOffset":46260,
			"target":34962
		},
		{
			"buffer":0,
			"byteLength":248,
			"byteOffset":46632,
			"target":34962
		},
		{
			"buffer":0,
			"byteLength":120,
			"byteOffset":46880,
			"target":34963
		},
		{
			"buffer":0,
			"byteLength":384,
			"byteOffset":47000,
			"target":34962
		},
		{
			"buffer":0,
			"byteLength":384,
			"byteOffset":47384,
			"target":34962
		},
		{
			"buffer":0,
			"byteLength":256,
			"byteOffset":47768,
			"target":34962
		},
		{
			"buffer":0,
			"byteLength":120,
			"byteOffset":48024,
			"target":34963
		},
		{
			"buffer":0,
			"byteLength":384,
			"byteOffset":48144,
			"target":34962
		},
		{
			"buffer":0,
			"byteLength":384,
			"byteOffset":48528,
			"target":34962
		},
		{
			"buffer":0,
			"byteLength":256,
			"byteOffset":48912,
			"target":34962
		},
		{
			"buffer":0,
			"byteLength":120,
			"byteOffset":49168,
			"target":34963
		},
		{
			"buffer":0,
			"byteLength":192,
			"byteOffset":49288,
			"target":34962
		},
		{
			"buffer":0,
			"byteLength":192,
			"byteOffset":49480,
			"target":34962
		},
		{
			"buffer":0,
			"byteLength":168,
			"byteOffset":49672,
			"target":34963
		},
		{
			"buffer":0,
			"byteLength":120,
			"byteOffset":49840,
			"target":34962
		},
		{
			"buffer":0,
			"byteLength":120,
			"byteOffset":49960,
			"target":34962
		},
		{
			"buffer":0,
			"byteLength":96,
			"byteOffset":50080,
			"target":34963
		},
		{
			"buffer":0,
			"byteLength":16548,
			"byteOffset":50176,
			"target":34962
		},
		{
			"buffer":0,
			"byteLength":16548,
			"byteOffset":66724,
			"target":34962
		},
		{
			"buffer":0,
			"byteLength":11032,
			"byteOffset":83272,
			"target":34962
		},
		{
			"buffer":0,
			"byteLength":12210,
			"byteOffset":94304,
			"target":34963
		},
		{
			"buffer":0,
			"byteLength":5532,
			"byteOffset":106516,
			"target":34962
		},
		{
			"buffer":0,
			"byteLength":5532,
			"byteOffset":112048,
			"target":34962
		},
		{
			"buffer":0,
			"byteLength":3688,
			"byteOffset":117580,
			"target":34962
		},
		{
			"buffer":0,
			"byteLength":4860,
			"byteOffset":121268,
			"target":34963
		},
		{
			"buffer":0,
			"byteLength":1176,
			"byteOffset":126128,
			"target":34962
		},
		{
			"buffer":0,
			"byteLength":1176,
			"byteOffset":127304,
			"target":34962
		},
		{
			"buffer":0,
			"byteLength":784,
			"byteOffset":128480,
			"target":34962
		},
		{
			"buffer":0,
			"byteLength":264,
			"byteOffset":129264,
			"target":34963
		},
		{
			"buffer":0,
			"byteLength":1152,
			"byteOffset":129528,
			"target":34962
		},
		{
			"buffer":0,
			"byteLength":1152,
			"byteOffset":130680,
			"target":34962
		},
		{
			"buffer":0,
			"byteLength":768,
			"byteOffset":131832,
			"target":34962
		},
		{
			"buffer":0,
			"byteLength":264,
			"byteOffset":132600,
			"target":34963
		},
		{
			"buffer":0,
			"byteLength":1152,
			"byteOffset":132864,
			"target":34962
		},
		{
			"buffer":0,
			"byteLength":1152,
			"byteOffset":134016,
			"target":34962
		},
		{
			"buffer":0,
			"byteLength":768,
			"byteOffset":135168,
			"target":34962
		},
		{
			"buffer":0,
			"byteLength":1152,
			"byteOffset":135936,
			"target":34962
		},
		{
			"buffer":0,
			"byteLength":1152,
			"byteOffset":137088,
			"target":34962
		},
		{
			"buffer":0,
			"byteLength":768,
			"byteOffset":138240,
			"target":34962
		},
		{
			"buffer":0,
			"byteLength":1152,
			"byteOffset":139008,
			"target":34962
		},
		{
			"buffer":0,
			"byteLength":1152,
			"byteOffset":140160,
			"target":34962
		},
		{
			"buffer":0,
			"byteLength":768,
			"byteOffset":141312,
			"target":34962
		},
		{
			"buffer":0,
			"byteLength":1152,
			"byteOffset":142080,
			"target":34962
		},
		{
			"buffer":0,
			"byteLength":1152,
			"byteOffset":143232,
			"target":34962
		},
		{
			"buffer":0,
			"byteLength":768,
			"byteOffset":144384,
			"target":34962
		},
		{
			"buffer":0,
			"byteLength":1152,
			"byteOffset":145152,
			"target":34962
		},
		{
			"buffer":0,
			"byteLength":1152,
			"byteOffset":146304,
			"target":34962
		},
		{
			"buffer":0,
			"byteLength":768,
			"byteOffset":147456,
			"target":34962
		},
		{
			"buffer":0,
			"byteLength":1152,
			"byteOffset":148224,
			"target":34962
		},
		{
			"buffer":0,
			"byteLength":1152,
			"byteOffset":149376,
			"target":34962
		},
		{
			"buffer":0,
			"byteLength":768,
			"byteOffset":150528,
			"target":34962
		},
		{
			"buffer":0,
			"byteLength":1152,
			"byteOffset":151296,
			"target":34962
		},
		{
			"buffer":0,
			"byteLength":1152,
			"byteOffset":152448,
			"target":34962
		},
		{
			"buffer":0,
			"byteLength":768,
			"byteOffset":153600,
			"target":34962
		},
		{
			"buffer":0,
			"byteLength":1152,
			"byteOffset":154368,
			"target":34962
		},
		{
			"buffer":0,
			"byteLength":1152,
			"byteOffset":155520,
			"target":34962
		},
		{
			"buffer":0,
			"byteLength":768,
			"byteOffset":156672,
			"target":34962
		},
		{
			"buffer":0,
			"byteLength":1152,
			"byteOffset":157440,
			"target":34962
		},
		{
			"buffer":0,
			"byteLength":1152,
			"byteOffset":158592,
			"target":34962
		},
		{
			"buffer":0,
			"byteLength":768,
			"byteOffset":159744,
			"target":34962
		},
		{
			"buffer":0,
			"byteLength":1152,
			"byteOffset":160512,
			"target":34962
		},
		{
			"buffer":0,
			"byteLength":1152,
			"byteOffset":161664,
			"target":34962
		},
		{
			"buffer":0,
			"byteLength":768,
			"byteOffset":162816,
			"target":34962
		},
		{
			"buffer":0,
			"byteLength":1152,
			"byteOffset":163584,
			"target":34962
		},
		{
			"buffer":0,
			"byteLength":1152,
			"byteOffset":164736,
			"target":34962
		},
		{
			"buffer":0,
			"byteLength":768,
			"byteOffset":165888,
			"target":34962
		},
		{
			"buffer":0,
			"byteLength":1152,
			"byteOffset":166656,
			"target":34962
		},
		{
			"buffer":0,
			"byteLength":1152,
			"byteOffset":167808,
			"target":34962
		},
		{
			"buffer":0,
			"byteLength":768,
			"byteOffset":168960,
			"target":34962
		},
		{
			"buffer":0,
			"byteLength":1152,
			"byteOffset":169728,
			"target":34962
		},
		{
			"buffer":0,
			"byteLength":1152,
			"byteOffset":170880,
			"target":34962
		},
		{
			"buffer":0,
			"byteLength":768,
			"byteOffset":172032,
			"target":34962
		},
		{
			"buffer":0,
			"byteLength":1152,
			"byteOffset":172800,
			"target":34962
		},
		{
			"buffer":0,
			"byteLength":1152,
			"byteOffset":173952,
			"target":34962
		},
		{
			"buffer":0,
			"byteLength":768,
			"byteOffset":175104,
			"target":34962
		},
		{
			"buffer":0,
			"byteLength":1152,
			"byteOffset":175872,
			"target":34962
		},
		{
			"buffer":0,
			"byteLength":1152,
			"byteOffset":177024,
			"target":34962
		},
		{
			"buffer":0,
			"byteLength":768,
			"byteOffset":178176,
			"target":34962
		},
		{
			"buffer":0,
			"byteLength":1152,
			"byteOffset":178944,
			"target":34962
		},
		{
			"buffer":0,
			"byteLength":1152,
			"byteOffset":180096,
			"target":34962
		},
		{
			"buffer":0,
			"byteLength":768,
			"byteOffset":181248,
			"target":34962
		},
		{
			"buffer":0,
			"byteLength":1152,
			"byteOffset":182016,
			"target":34962
		},
		{
			"buffer":0,
			"byteLength":1152,
			"byteOffset":183168,
			"target":34962
		},
		{
			"buffer":0,
			"byteLength":768,
			"byteOffset":184320,
			"target":34962
		},
		{
			"buffer":0,
			"byteLength":1152,
			"byteOffset":185088,
			"target":34962
		},
		{
			"buffer":0,
			"byteLength":1152,
			"byteOffset":186240,
			"target":34962
		},
		{
			"buffer":0,
			"byteLength":768,
			"byteOffset":187392,
			"target":34962
		},
		{
			"buffer":0,
			"byteLength":1152,
			"byteOffset":188160,
			"target":34962
		},
		{
			"buffer":0,
			"byteLength":1152,
			"byteOffset":189312,
			"target":34962
		},
		{
			"buffer":0,
			"byteLength":768,
			"byteOffset":190464,
			"target":34962
		}
	],
	"samplers":[
		{
			"magFilter":9729,
			"minFilter":9987
		}
	],
	"buffers":[
		{
			"byteLength":191232,
			"uri":"piece_gap_big.bin"
		}
	]
}
